<svg width="14" height="15" viewBox="0 0 14 15" fill="none" xmlns="http://www.w3.org/2000/svg">
<path d="M5.25 6.4375V9.5C5.25 9.99219 4.83984 10.375 4.375 10.375H3.9375C2.95312 10.375 2.1875 9.60938 2.1875 8.625V7.3125C2.1875 6.35547 2.95312 5.5625 3.9375 5.5625H4.375C4.83984 5.5625 5.25 5.97266 5.25 6.4375ZM10.0625 10.375H9.625C9.13281 10.375 8.75 9.99219 8.75 9.5V6.4375C8.75 5.97266 9.13281 5.5625 9.625 5.5625H10.0625C11.0195 5.5625 11.8125 6.35547 11.8125 7.3125V8.625C11.8125 9.60938 11.0195 10.375 10.0625 10.375ZM7 0.75C10.8828 0.75 13.8633 4.00391 14 7.75V12.2891C14 13.6562 12.8789 14.75 11.5117 14.75H6.5625C5.82422 14.75 5.25 14.1758 5.25 13.4375C5.25 12.7266 5.82422 12.125 6.5625 12.125H7.4375C8.14844 12.125 8.75 12.7266 8.75 13.4375H11.5117C12.168 13.4375 12.6875 12.9453 12.6875 12.2891C12.6875 12.2891 12.6602 7.83203 12.6602 7.75H12.6875C12.6875 4.63281 10.1172 2.0625 7 2.0625C3.85547 2.0625 1.3125 4.63281 1.3125 7.75V8.1875C1.3125 8.43359 1.09375 8.625 0.875 8.625H0.4375C0.191406 8.625 0 8.43359 0 8.1875V7.75C0.109375 4.00391 3.08984 0.75 7 0.75Z" fill="#062A3F"/>
</svg>
