<svg width="48" height="49" viewBox="0 0 48 49" fill="none" xmlns="http://www.w3.org/2000/svg">
<g id="approved" clip-path="url(#clip0_1_310)">
<g id="Group">
<path id="Vector" d="M43.1898 9.88664C43.1321 9.53533 42.8279 9.29297 42.4688 9.28337C42.3447 9.28525 42.2209 9.28616 42.0981 9.28616C31.0229 9.28616 24.7792 2.0815 24.7164 2.00792C24.5466 1.80819 24.2912 1.7264 24.0493 1.76624C23.8065 1.72501 23.5487 1.8068 23.3781 2.00859C23.3162 2.08217 17.1038 9.28616 5.99915 9.28616C5.8754 9.28616 5.75069 9.28525 5.62604 9.28337C5.26133 9.28827 4.96273 9.53509 4.90508 9.88664C4.81508 10.4367 2.74978 23.4891 7.69273 34.934C10.4518 41.3239 15.9957 45.9028 23.7254 48.1756C23.7929 48.1955 23.8613 48.2051 23.9288 48.2051C23.9696 48.2051 24.0081 48.1927 24.0474 48.1859C24.0873 48.1927 24.1257 48.2051 24.1665 48.2051C24.234 48.2051 24.3025 48.1955 24.3699 48.1756C32.0992 45.9028 37.6431 41.3239 40.4021 34.934C45.3451 23.4891 43.2798 10.4367 43.1898 9.88664ZM39.0803 34.3631C36.4693 40.4096 31.411 44.5817 24.0474 46.7677C16.6838 44.5817 11.6256 40.4098 9.01465 34.3631C4.82866 24.6713 5.90165 13.4285 6.24245 10.7252C16.3079 10.6395 22.4237 5.08875 24.0474 3.40712C25.6712 5.08899 31.7865 10.6401 41.8529 10.7252C42.1947 13.4262 43.2709 24.6602 39.0803 34.3631Z" fill="white"/>
<path id="Vector_2" d="M31.7156 20.0254L22.38 29.3629L17.9634 24.9489C17.6822 24.6681 17.2266 24.6679 16.9453 24.9492C16.6641 25.2304 16.6641 25.6865 16.9453 25.9675L21.871 30.8903C22.0116 31.0307 22.1958 31.101 22.38 31.101C22.5642 31.101 22.7484 31.0307 22.889 30.8901L32.7337 21.0435C33.015 20.7623 33.015 20.3064 32.7337 20.0254C32.4525 19.7441 31.9969 19.7441 31.7156 20.0254Z" fill="white"/>
</g>
</g>
<defs>
<clipPath id="clip0_1_310">
<rect width="48" height="48" fill="white" transform="translate(0 0.952881)"/>
</clipPath>
</defs>
</svg>
