<svg width="416" height="636" viewBox="0 0 416 636" fill="none" xmlns="http://www.w3.org/2000/svg">
<path d="M262.486 0.0541992L183.726 45.5317V136.487L262.486 181.964L341.246 136.487V45.5317L262.486 0.0541992Z" fill="url(#paint0_linear_1_370)"/>
<path d="M350.675 155.321L271.914 200.798V291.754L350.675 337.231L429.435 291.754V200.798L350.675 155.321Z" fill="url(#paint1_linear_1_370)"/>
<path d="M438.863 310.588L360.103 356.065V447.02L438.863 492.498L517.623 447.02V356.065L438.863 310.588Z" fill="url(#paint2_linear_1_370)"/>
<path d="M527.051 465.854L448.291 511.332V602.287L527.051 647.765L605.812 602.287V511.332L527.051 465.854Z" fill="url(#paint3_linear_1_370)"/>
<path d="M615.24 621.121L536.48 666.599V757.554L615.24 803.031L694 757.554V666.599L615.24 621.121Z" fill="url(#paint4_linear_1_370)"/>
<path d="M436.107 623.877L357.347 669.355V760.31L436.107 805.787L514.867 760.31V669.355L436.107 623.877Z" fill="url(#paint5_linear_1_370)"/>
<path d="M171.542 155.321L92.7816 200.798V291.754L171.542 337.231L250.302 291.754V200.798L171.542 155.321Z" fill="url(#paint6_linear_1_370)"/>
<path d="M259.73 311.506L180.97 356.984V447.939L259.73 493.417L338.49 447.939V356.984L259.73 311.506Z" fill="url(#paint7_linear_1_370)"/>
<path d="M347.919 467.692L269.159 513.169V604.124L347.919 649.602L426.679 604.124V513.169L347.919 467.692Z" fill="url(#paint8_linear_1_370)"/>
<path d="M343.325 779.144L264.565 824.622V915.577L343.325 961.054L422.086 915.577V824.622L343.325 779.144Z" fill="url(#paint9_linear_1_370)"/>
<path d="M78.7601 310.588L0 356.065V447.02L78.7601 492.498L157.52 447.02V356.065L78.7601 310.588Z" fill="url(#paint10_linear_1_370)"/>
<path d="M166.949 466.773L88.1885 512.251V603.206L166.949 648.683L245.709 603.206V512.251L166.949 466.773Z" fill="url(#paint11_linear_1_370)"/>
<path d="M255.137 622.959L176.377 668.436V759.391L255.137 804.869L333.897 759.391V668.436L255.137 622.959Z" fill="url(#paint12_linear_1_370)"/>
<defs>
<linearGradient id="paint0_linear_1_370" x1="116.424" y1="0.0541488" x2="694.1" y2="960.994" gradientUnits="userSpaceOnUse">
<stop stop-color="#008947" stop-opacity="0.07"/>
<stop offset="1" stop-color="#19BE6F" stop-opacity="0.01"/>
</linearGradient>
<linearGradient id="paint1_linear_1_370" x1="116.424" y1="0.0541488" x2="694.1" y2="960.994" gradientUnits="userSpaceOnUse">
<stop stop-color="#008947" stop-opacity="0.07"/>
<stop offset="1" stop-color="#19BE6F" stop-opacity="0.01"/>
</linearGradient>
<linearGradient id="paint2_linear_1_370" x1="116.424" y1="0.0541488" x2="694.1" y2="960.994" gradientUnits="userSpaceOnUse">
<stop stop-color="#008947" stop-opacity="0.07"/>
<stop offset="1" stop-color="#19BE6F" stop-opacity="0.01"/>
</linearGradient>
<linearGradient id="paint3_linear_1_370" x1="116.424" y1="0.0541488" x2="694.1" y2="960.994" gradientUnits="userSpaceOnUse">
<stop stop-color="#008947" stop-opacity="0.07"/>
<stop offset="1" stop-color="#19BE6F" stop-opacity="0.01"/>
</linearGradient>
<linearGradient id="paint4_linear_1_370" x1="116.424" y1="0.0541488" x2="694.1" y2="960.994" gradientUnits="userSpaceOnUse">
<stop stop-color="#008947" stop-opacity="0.07"/>
<stop offset="1" stop-color="#19BE6F" stop-opacity="0.01"/>
</linearGradient>
<linearGradient id="paint5_linear_1_370" x1="116.424" y1="0.0541488" x2="694.1" y2="960.994" gradientUnits="userSpaceOnUse">
<stop stop-color="#008947" stop-opacity="0.07"/>
<stop offset="1" stop-color="#19BE6F" stop-opacity="0.01"/>
</linearGradient>
<linearGradient id="paint6_linear_1_370" x1="116.424" y1="0.0541488" x2="694.1" y2="960.994" gradientUnits="userSpaceOnUse">
<stop stop-color="#008947" stop-opacity="0.07"/>
<stop offset="1" stop-color="#19BE6F" stop-opacity="0.01"/>
</linearGradient>
<linearGradient id="paint7_linear_1_370" x1="116.424" y1="0.0541488" x2="694.1" y2="960.994" gradientUnits="userSpaceOnUse">
<stop stop-color="#008947" stop-opacity="0.07"/>
<stop offset="1" stop-color="#19BE6F" stop-opacity="0.01"/>
</linearGradient>
<linearGradient id="paint8_linear_1_370" x1="116.424" y1="0.0541488" x2="694.1" y2="960.994" gradientUnits="userSpaceOnUse">
<stop stop-color="#008947" stop-opacity="0.07"/>
<stop offset="1" stop-color="#19BE6F" stop-opacity="0.01"/>
</linearGradient>
<linearGradient id="paint9_linear_1_370" x1="116.424" y1="0.0541488" x2="694.1" y2="960.994" gradientUnits="userSpaceOnUse">
<stop stop-color="#008947" stop-opacity="0.07"/>
<stop offset="1" stop-color="#19BE6F" stop-opacity="0.01"/>
</linearGradient>
<linearGradient id="paint10_linear_1_370" x1="116.424" y1="0.0541488" x2="694.1" y2="960.994" gradientUnits="userSpaceOnUse">
<stop stop-color="#008947" stop-opacity="0.07"/>
<stop offset="1" stop-color="#19BE6F" stop-opacity="0.01"/>
</linearGradient>
<linearGradient id="paint11_linear_1_370" x1="116.424" y1="0.0541488" x2="694.1" y2="960.994" gradientUnits="userSpaceOnUse">
<stop stop-color="#008947" stop-opacity="0.07"/>
<stop offset="1" stop-color="#19BE6F" stop-opacity="0.01"/>
</linearGradient>
<linearGradient id="paint12_linear_1_370" x1="116.424" y1="0.0541488" x2="694.1" y2="960.994" gradientUnits="userSpaceOnUse">
<stop stop-color="#008947" stop-opacity="0.07"/>
<stop offset="1" stop-color="#19BE6F" stop-opacity="0.01"/>
</linearGradient>
</defs>
</svg>
