<svg width="164" height="51" viewBox="0 0 164 51" fill="none" xmlns="http://www.w3.org/2000/svg">
<g id="Frame" style="mix-blend-mode:luminosity">
<path id="Vector" d="M25.1814 3.06409C22.2138 3.06409 19.2751 3.64447 16.5333 4.77191C13.7916 5.89947 11.3004 7.55204 9.20189 9.63537C7.10347 11.7188 5.43893 14.192 4.3032 16.9141C3.1676 19.6361 2.58301 22.5537 2.58301 25.5C2.58301 28.4463 3.1676 31.3638 4.3032 34.0859C5.43893 36.8079 7.10347 39.2811 9.20189 41.3646C11.3004 43.4479 13.7916 45.1005 16.5333 46.2281C19.2751 47.3555 22.2138 47.9359 25.1814 47.9359V36.7179C23.6976 36.7179 22.2283 36.4278 20.8574 35.864C19.4865 35.3002 18.2409 34.474 17.1917 33.4323C16.1425 32.3906 15.3102 31.154 14.7424 29.7929C14.1744 28.4319 13.8822 26.9732 13.8822 25.5C13.8822 24.0268 14.1744 22.5681 14.7424 21.207C15.3102 19.846 16.1425 18.6093 17.1917 17.5677C18.2409 16.526 19.4865 15.6997 20.8574 15.136C22.2283 14.5722 23.6976 14.282 25.1814 14.282V3.06409Z" fill="#0F52FF"/>
<path id="Vector_2" d="M25.1812 32.9786C29.3415 32.9786 32.714 29.6304 32.714 25.5C32.714 21.3696 29.3415 18.0214 25.1812 18.0214C21.0209 18.0214 17.6484 21.3696 17.6484 25.5C17.6484 29.6304 21.0209 32.9786 25.1812 32.9786Z" fill="#0F52FF"/>
<path id="Vector_3" d="M2.58301 25.5C2.58301 28.4463 3.1676 31.3638 4.3032 34.0859C5.43893 36.808 7.10347 39.2812 9.20189 41.3646C11.3004 43.4479 13.7916 45.1005 16.5333 46.2281C19.2751 47.3555 22.2138 47.9359 25.1814 47.9359C28.1491 47.9359 31.0878 47.3555 33.8295 46.2281C36.5713 45.1005 39.0624 43.4479 41.161 41.3646C43.2594 39.2812 44.9239 36.808 46.0597 34.0859C47.1953 31.3638 47.7799 28.4463 47.7799 25.5H36.4806C36.4806 26.9732 36.1884 28.4319 35.6205 29.7929C35.0527 31.154 34.2204 32.3906 33.1712 33.4323C32.122 34.474 30.8764 35.3003 29.5055 35.864C28.1346 36.4278 26.6653 36.7179 25.1814 36.7179C23.6976 36.7179 22.2283 36.4278 20.8574 35.864C19.4865 35.3003 18.2409 34.474 17.1917 33.4323C16.1425 32.3906 15.3102 31.154 14.7424 29.7929C14.1745 28.4319 13.8822 26.9732 13.8822 25.5H2.58301Z" fill="#5BD0F4"/>
<path id="Vector_4" d="M32.7141 25.5C32.7141 23.5166 31.9204 21.6144 30.5078 20.2118C29.0951 18.8092 27.1792 18.0213 25.1813 18.0213C23.1835 18.0213 21.2675 18.8092 19.8548 20.2118C18.4421 21.6144 17.6484 23.5166 17.6484 25.5H25.1813H32.7141Z" fill="#5BD0F4"/>
<path id="Vector_5" d="M59.5821 17.0705H56.7754V32.5513H59.5821V17.0705Z" fill="#0F52FF"/>
<path id="Vector_6" d="M61.415 27.0667C61.415 30.6494 63.9099 32.8609 67.2067 32.8609C70.5035 32.8609 72.9983 30.6494 72.9983 27.0667C72.9983 23.484 70.5035 21.2725 67.2067 21.2725C63.9099 21.2725 61.415 23.484 61.415 27.0667ZM64.2218 27.0667C64.2218 24.9436 65.4692 23.7052 67.2067 23.7052C68.9442 23.7052 70.1916 24.9436 70.1916 27.0667C70.1916 29.1898 68.9442 30.4282 67.2067 30.4282C65.4692 30.4282 64.2218 29.1898 64.2218 27.0667Z" fill="#0F52FF"/>
<path id="Vector_7" d="M83.0278 21.5821V23.0637H82.805C82.1368 22.1128 81.0675 21.2725 79.1518 21.2725C76.5233 21.2725 74.1621 23.484 74.1621 26.8898C74.1621 30.2955 76.5233 32.5071 79.1518 32.5071C81.0675 32.5071 82.1368 31.6445 82.7605 30.7821H82.9832V31.8436C82.9832 33.9667 81.7358 34.9398 79.9092 34.9398C78.0826 34.9398 77.147 33.9667 76.7683 32.7061L74.2512 33.7898C74.8304 35.4484 76.5233 37.284 79.9538 37.284C83.4733 37.284 85.79 35.4484 85.79 31.9099V21.5821H83.0278ZM79.9983 30.1186C78.2608 30.1186 76.9688 28.8802 76.9688 26.8898C76.9688 24.8994 78.2608 23.6609 79.9983 23.6609C81.7358 23.6609 83.0278 24.8994 83.0278 26.8898C83.0278 28.8802 81.7358 30.1186 79.9983 30.1186Z" fill="#0F52FF"/>
<path id="Vector_8" d="M87.6055 27.0667C87.6055 30.6494 90.1003 32.8609 93.3971 32.8609C96.6939 32.8609 99.1886 30.6494 99.1886 27.0667C99.1886 23.484 96.6939 21.2725 93.3971 21.2725C90.1003 21.2725 87.6055 23.484 87.6055 27.0667ZM90.4122 27.0667C90.4122 24.9436 91.6596 23.7052 93.3971 23.7052C95.1346 23.7052 96.3821 24.9436 96.3821 27.0667C96.3821 29.1898 95.1346 30.4282 93.3971 30.4282C91.6596 30.4282 90.4122 29.1898 90.4122 27.0667Z" fill="#0F52FF"/>
<path id="Vector_9" d="M101.392 18.3974C101.392 19.5254 102.261 20.2993 103.375 20.2993C104.488 20.2993 105.357 19.5254 105.357 18.3974C105.357 17.2696 104.488 16.4955 103.375 16.4955C102.261 16.4955 101.392 17.2696 101.392 18.3974ZM104.777 21.582H101.971V32.5513H104.777V21.582Z" fill="#5BD0F4"/>
<path id="Vector_10" d="M107.279 36.9744H110.087V31.1359H110.309C110.932 32.0205 112.002 32.8609 113.918 32.8609C116.546 32.8609 118.908 30.6494 118.908 27.0667C118.908 23.484 116.546 21.2725 113.918 21.2725C112.002 21.2725 110.932 22.1128 110.265 23.0639H110.041V21.5821H107.279V36.9744ZM113.071 30.4725C111.334 30.4725 110.041 29.234 110.041 27.0667C110.041 24.8994 111.334 23.6609 113.071 23.6609C114.809 23.6609 116.1 24.8994 116.1 27.0667C116.1 29.234 114.809 30.4725 113.071 30.4725Z" fill="#5BD0F4"/>
<path id="Vector_11" d="M120.545 24.6562C120.545 26.8235 122.371 27.6196 124.688 28.0619L125.268 28.1725C126.648 28.4378 127.272 28.7696 127.272 29.4773C127.272 30.185 126.648 30.7378 125.357 30.7378C124.064 30.7378 123.018 30.2071 122.728 28.6148L120.144 29.2782C120.523 31.5782 122.46 32.8609 125.357 32.8609C128.163 32.8609 129.99 31.5562 129.99 29.2562C129.99 26.9561 128.119 26.3369 125.624 25.8504L125.044 25.7398C123.886 25.5186 123.262 25.209 123.262 24.4793C123.262 23.8158 123.842 23.3955 124.911 23.3955C125.98 23.3955 126.737 23.8378 127.004 25.0321L129.544 24.2581C129.01 22.4889 127.384 21.2725 124.911 21.2725C122.282 21.2725 120.545 22.4889 120.545 24.6562Z" fill="#5BD0F4"/>
<path id="Vector_12" d="M142.598 32.5513V21.582H139.791V27.2436C139.791 29.2782 138.789 30.4724 137.073 30.4724C135.558 30.4724 134.713 29.6542 134.713 27.9955V21.582H131.905V28.1282C131.905 30.8484 133.621 32.7282 136.205 32.7282C138.232 32.7282 139.168 31.8436 139.613 30.9147H139.835V32.5513H142.598Z" fill="#5BD0F4"/>
<path id="Vector_13" d="M145.087 21.5821V32.5513H147.894V26.0052C147.894 24.5013 148.607 23.6609 149.898 23.6609C151.013 23.6609 151.68 24.2802 151.68 25.4744V32.5513H154.488V26.0052C154.488 24.5013 155.201 23.6609 156.492 23.6609C157.606 23.6609 158.274 24.2802 158.274 25.4744V32.5513H161.081V25.3417C161.081 22.6878 159.432 21.4052 157.383 21.4052C155.579 21.4052 154.755 22.2013 154.221 23.1302H153.997C153.484 22.0908 152.572 21.4052 150.968 21.4052C149.364 21.4052 148.495 22.1128 148.072 22.9532H147.849V21.5821H145.087Z" fill="#5BD0F4"/>
</g>
</svg>
