<svg width="160" height="47" viewBox="0 0 160 47" fill="none" xmlns="http://www.w3.org/2000/svg">
<g id="Frame" style="mix-blend-mode:luminosity">
<path id="Vector" fill-rule="evenodd" clip-rule="evenodd" d="M26.6051 4.22414C25.1113 2.73101 22.69 2.7315 21.1969 4.22525L8.73553 16.6917L8.72491 16.6886L8.68553 16.6928C8.70175 16.7006 8.71767 16.7083 8.73327 16.7161C6.54729 16.9451 5.61981 17.602 5.60931 18.4456C5.61301 18.7594 5.74176 19.0983 5.97825 19.4501L5.96688 19.4615C7.95416 22.4588 17.7991 26.4127 24.7641 23.7338C19.5441 26.3438 7.25073 26.8611 3.63998 21.7935C2.85584 22.6418 2.52776 23.7566 2.65131 24.8279C3.60517 30.0853 14.2694 31.5196 24.9337 23.9023L27.2414 26.21C24.3698 29.1602 20.1281 46.2967 26.4308 43.6803C26.5803 43.5788 26.7072 43.488 26.8798 43.3574L27.1607 43.0922C27.1445 43.0962 27.1284 43.1 27.1124 43.1038L43.9924 27.1681C45.5597 25.6884 45.5952 23.2065 44.0707 21.6826L26.6051 4.22414ZM24.7669 9.41743L25.3438 7.10974L25.9207 9.41743L27.6515 9.99436L25.9207 10.5713L25.3438 12.879L24.7669 10.5713L23.0361 9.99436L24.7669 9.41743ZM17.626 16.9508L18.0106 15.4123L18.3952 16.9508L19.5491 17.3354L18.3952 17.72L18.0106 19.2585L17.626 17.72L16.4722 17.3354L17.626 16.9508ZM31.0216 29.9277L30.637 31.4661L29.4832 31.8508L30.637 32.2354L31.0216 33.7738L31.4062 32.2354L32.5601 31.8508L31.4062 31.4661L31.0216 29.9277Z" fill="#4845D2"/>
<path id="Vector_2" d="M54.8975 12.7755H51.3154V28.9387H61.2318V25.7716H54.8975V12.7755Z" fill="#4845D2"/>
<path id="Vector_3" d="M61.5742 23.4563C61.5742 26.9074 63.8895 29.2008 67.3842 29.2008C70.8572 29.2008 73.1724 26.9074 73.1724 23.4563C73.1724 20.0052 70.8572 17.69 67.3842 17.69C63.8895 17.69 61.5742 20.0052 61.5742 23.4563ZM64.9598 23.4345C64.9598 21.7963 65.9208 20.7042 67.3842 20.7042C68.8258 20.7042 69.7869 21.7963 69.7869 23.4345C69.7869 25.0945 68.8258 26.1866 67.3842 26.1866C65.9208 26.1866 64.9598 25.0945 64.9598 23.4345Z" fill="#4845D2"/>
<path id="Vector_4" d="M73.7135 23.2816C73.7135 26.5797 75.8541 28.8076 78.8901 28.8076C80.3536 28.8076 81.6204 28.2834 82.2538 27.4316V28.9387C82.2538 30.4458 81.3146 31.4506 79.6546 31.4506C78.1693 31.4506 77.1428 30.7516 77.0772 29.5066H73.6699C73.9756 32.499 76.2909 34.5085 79.458 34.5085C83.1931 34.5085 85.552 32.084 85.552 28.2397V18.0176H82.5159L82.3412 19.1315C81.7296 18.236 80.4409 17.6463 78.9557 17.6463C75.8978 17.6463 73.7135 19.9397 73.7135 23.2816ZM77.1209 23.1942C77.1209 21.6216 78.1694 20.5731 79.5017 20.5731C81.0525 20.5731 82.1883 21.5997 82.1883 23.1942C82.1883 24.7887 81.0744 25.8808 79.5236 25.8808C78.1912 25.8808 77.1209 24.7887 77.1209 23.1942Z" fill="#4845D2"/>
<path id="Vector_5" d="M86.5322 23.4563C86.5322 26.9074 88.8474 29.2008 92.3422 29.2008C95.8151 29.2008 98.1304 26.9074 98.1304 23.4563C98.1304 20.0052 95.8151 17.69 92.3422 17.69C88.8474 17.69 86.5322 20.0052 86.5322 23.4563ZM89.9177 23.4345C89.9177 21.7963 90.8788 20.7042 92.3422 20.7042C93.7838 20.7042 94.7448 21.7963 94.7448 23.4345C94.7448 25.0945 93.7838 26.1866 92.3422 26.1866C90.8788 26.1866 89.9177 25.0945 89.9177 23.4345Z" fill="#4845D2"/>
<path id="Vector_6" d="M101.031 16.3139C102.079 16.3139 102.931 15.4621 102.931 14.3918C102.931 13.3215 102.079 12.4915 101.031 12.4915C99.9603 12.4915 99.1084 13.3215 99.1084 14.3918C99.1084 15.4621 99.9603 16.3139 101.031 16.3139ZM99.3268 28.9387H102.713V18.0176H99.3268V28.9387Z" fill="#4845D2"/>
<path id="Vector_7" d="M104.683 34.1808H108.003V27.8466C108.637 28.6766 110.078 29.2445 111.586 29.2445C114.84 29.2445 116.806 26.7545 116.718 23.3034C116.631 19.7868 114.6 17.6681 111.564 17.6681C110.013 17.6681 108.55 18.3452 107.938 19.35L107.763 18.0176H104.683V34.1808ZM108.069 23.4781C108.069 21.84 109.161 20.7479 110.734 20.7479C112.328 20.7479 113.333 21.8618 113.333 23.4781C113.333 25.0945 112.328 26.2084 110.734 26.2084C109.161 26.2084 108.069 25.1163 108.069 23.4781Z" fill="#4845D2"/>
<path id="Vector_8" d="M117.077 25.4876C117.164 27.6937 118.912 29.2226 121.664 29.2226C124.307 29.2226 126.142 27.8247 126.142 25.575C126.142 23.9587 125.18 22.8884 123.389 22.4516L121.445 21.971C120.746 21.7963 120.31 21.6216 120.31 21.0537C120.31 20.4858 120.768 20.1144 121.445 20.1144C122.21 20.1144 122.712 20.6168 122.69 21.3595H125.727C125.639 19.0879 123.914 17.6681 121.511 17.6681C119.086 17.6681 117.274 19.1097 117.274 21.2939C117.274 22.7574 118.082 23.9587 120.244 24.5266L122.166 25.0289C122.734 25.1818 122.974 25.4439 122.974 25.8153C122.974 26.3613 122.472 26.7108 121.62 26.7108C120.637 26.7108 120.113 26.2521 120.113 25.4876H117.077Z" fill="#4845D2"/>
<path id="Vector_9" d="M131.29 29.2226C132.623 29.2226 133.955 28.6111 134.632 27.7155L134.851 28.9387H138.018V18.0176H134.654V23.6966C134.654 25.3347 134.173 26.2303 132.623 26.2303C131.421 26.2303 130.635 25.6842 130.635 23.6529V18.0176H127.271V24.876C127.271 27.4753 128.713 29.2226 131.29 29.2226Z" fill="#4845D2"/>
<path id="Vector_10" d="M143.352 28.9387V22.9758C143.352 21.141 144.335 20.6168 145.296 20.6168C146.366 20.6168 147.065 21.2721 147.065 22.6263V28.9387H150.385V22.9758C150.385 21.1192 151.346 20.595 152.307 20.595C153.377 20.595 154.098 21.2502 154.098 22.6263V28.9387H157.375V21.7963C157.375 19.3063 156.064 17.6463 153.246 17.6463C151.674 17.6463 150.385 18.4108 149.817 19.5902C149.162 18.4108 148.026 17.6463 146.213 17.6463C145.012 17.6463 143.898 18.1923 143.243 19.066L143.112 18.0176H139.966V28.9387H143.352Z" fill="#4845D2"/>
<path id="Vector_11" fill-rule="evenodd" clip-rule="evenodd" d="M45.2922 5.75128C41.6835 5.75128 38.2612 7.35419 35.9509 10.1265L27.7319 19.9894L32.4779 12.8703L24.5999 16.2466C23.5994 16.6754 23.3484 17.9789 24.118 18.7486L26.6532 21.2837L25.3588 22.837L28.2065 25.6846L29.7597 24.3902L32.2949 26.9254C33.0645 27.695 34.3681 27.444 34.7968 26.4436L38.1731 18.5656L31.0541 23.3116L40.917 15.0925C43.6893 12.7823 45.2922 9.36 45.2922 5.75128ZM37.4613 13.5824C38.2476 14.3687 39.5225 14.3687 40.3089 13.5824C41.0952 12.796 41.0952 11.5211 40.3089 10.7348C39.5225 9.94841 38.2476 9.94841 37.4613 10.7348C36.6749 11.5211 36.6749 12.796 37.4613 13.5824Z" fill="#A3A2FF"/>
<path id="Vector_12" opacity="0.6" d="M3.54785 21.6609C5.43331 28.1207 16.8965 27.7839 24.7613 23.7348C19.4949 26.3664 7.03687 26.869 3.54785 21.6609Z" fill="#424242"/>
<path id="Vector_13" opacity="0.6" d="M26.4301 43.6803C21.1193 45.8849 23.2954 34.0645 25.8298 28.5245C23.9824 33.4487 22.4053 44.3038 27.16 43.0922L26.8791 43.3574C26.7065 43.488 26.5796 43.5788 26.4301 43.6803Z" fill="#424242"/>
</g>
</svg>
