<svg width="154" height="35" viewBox="0 0 154 35" fill="none" xmlns="http://www.w3.org/2000/svg">
<g id="Frame" style="mix-blend-mode:luminosity">
<path id="Vector" d="M45.1094 23.1914C45.1094 23.9336 44.957 24.5039 44.6523 24.9023C44.3555 25.3008 43.8594 25.5 43.1641 25.5C42.5078 25.5 42.043 25.3008 41.7695 24.9023C41.5039 24.5039 41.3711 23.9336 41.3711 23.1914V10.8047C41.3711 10.0625 41.5039 9.49219 41.7695 9.09375C42.043 8.69531 42.5078 8.49609 43.1641 8.49609C43.8594 8.49609 44.3555 8.69531 44.6523 9.09375C44.957 9.49219 45.1094 10.0625 45.1094 10.8047V23.1914Z" fill="#062A3F"/>
<path id="Vector_2" d="M46.2441 19.5938C46.2441 18.7656 46.3769 17.9844 46.6426 17.25C46.916 16.5078 47.3222 15.8594 47.8613 15.3047C48.4082 14.75 49.0879 14.3086 49.9004 13.9805C50.7207 13.6523 51.6816 13.4883 52.7832 13.4883C53.8379 13.4883 54.7715 13.6406 55.584 13.9453C56.3965 14.25 57.0801 14.6758 57.6347 15.2227C58.1894 15.7617 58.6113 16.4062 58.9004 17.1562C59.1894 17.8984 59.334 18.7109 59.334 19.5938C59.334 20.4141 59.1972 21.1914 58.9238 21.9258C58.6504 22.6523 58.2402 23.293 57.6933 23.8477C57.1465 24.3945 56.4629 24.832 55.6426 25.1602C54.8222 25.4805 53.8691 25.6406 52.7832 25.6406C51.7129 25.6406 50.7676 25.4883 49.9472 25.1836C49.1347 24.8711 48.4512 24.4453 47.8965 23.9062C47.3496 23.3594 46.9355 22.7188 46.6543 21.9844C46.3808 21.2422 46.2441 20.4453 46.2441 19.5938ZM50.1465 19.5938C50.1465 20.1094 50.1933 20.6016 50.2871 21.0703C50.3808 21.5312 50.5293 21.9375 50.7324 22.2891C50.9433 22.6406 51.2168 22.9219 51.5527 23.1328C51.8887 23.3359 52.2988 23.4375 52.7832 23.4375C53.2285 23.4375 53.6152 23.3438 53.9433 23.1562C54.2793 22.9688 54.5527 22.707 54.7637 22.3711C54.9824 22.0352 55.1465 21.6328 55.2558 21.1641C55.3652 20.6875 55.4199 20.1641 55.4199 19.5938C55.4199 19.0781 55.3691 18.5898 55.2676 18.1289C55.1738 17.6602 55.0215 17.25 54.8105 16.8984C54.5996 16.5391 54.3262 16.2578 53.9902 16.0547C53.6621 15.8438 53.2597 15.7383 52.7832 15.7383C52.3066 15.7383 51.9004 15.8398 51.5644 16.043C51.2285 16.2461 50.9551 16.5234 50.7441 16.875C50.5332 17.2266 50.3808 17.6367 50.2871 18.1055C50.1933 18.5742 50.1465 19.0703 50.1465 19.5938Z" fill="#062A3F"/>
<path id="Vector_3" d="M68.9532 23.2383C68.7422 23.6289 68.4844 23.9609 68.1797 24.2344C67.8829 24.5078 67.5508 24.7344 67.1837 24.9141C66.8243 25.0859 66.4376 25.2148 66.0235 25.3008C65.6172 25.3789 65.1993 25.418 64.7696 25.418C64.0508 25.418 63.3946 25.2891 62.8008 25.0312C62.2071 24.7734 61.6954 24.4023 61.2657 23.918C60.8438 23.4258 60.5157 22.8242 60.2813 22.1133C60.0469 21.4023 59.9297 20.5898 59.9297 19.6758C59.9297 18.8164 60.0391 18.0117 60.2579 17.2617C60.4766 16.5117 60.793 15.8594 61.2071 15.3047C61.629 14.75 62.1446 14.3125 62.754 13.9922C63.3633 13.6719 64.0587 13.5117 64.8399 13.5117C65.7305 13.5117 66.5196 13.6836 67.2071 14.0273C67.9024 14.3711 68.5001 14.9336 69.0001 15.7148V15.4102C69.0001 14.8477 69.1524 14.4258 69.4571 14.1445C69.7696 13.8555 70.1993 13.7109 70.7462 13.7109C71.0743 13.7109 71.3516 13.7656 71.5782 13.875C71.8047 13.9766 71.9844 14.1328 72.1172 14.3438C72.2501 14.5469 72.3438 14.8008 72.3985 15.1055C72.461 15.4023 72.4922 15.7422 72.4922 16.125V23.9766C72.4922 24.9297 72.3712 25.7812 72.129 26.5312C71.8946 27.2812 71.5274 27.9141 71.0274 28.4297C70.5274 28.9453 69.8868 29.3359 69.1055 29.6016C68.3243 29.875 67.3946 30.0117 66.3165 30.0117C65.5587 30.0117 64.8868 29.9766 64.3008 29.9062C63.7227 29.8438 63.2227 29.7461 62.8008 29.6133C62.379 29.4648 62.0587 29.3008 61.8399 29.1211C61.629 28.9414 61.5235 28.707 61.5235 28.418C61.5235 28.2539 61.5469 28.0977 61.5938 27.9492C61.6407 27.8008 61.711 27.668 61.8047 27.5508C61.9063 27.4414 62.0352 27.3516 62.1915 27.2812C62.3555 27.2188 62.5547 27.1875 62.7891 27.1875C63.0391 27.1875 63.2891 27.2031 63.5391 27.2344C63.7969 27.2656 64.0626 27.2969 64.336 27.3281C64.6172 27.3672 64.9102 27.4023 65.2149 27.4336C65.5274 27.4648 65.8633 27.4805 66.2227 27.4805C66.6524 27.4805 67.0352 27.4375 67.3712 27.3516C67.7071 27.2656 67.9922 27.1133 68.2266 26.8945C68.461 26.6758 68.6407 26.3828 68.7657 26.0156C68.8907 25.6562 68.9532 25.1953 68.9532 24.6328V23.2383ZM68.9532 19.5938C68.9532 19.0234 68.9102 18.5039 68.8243 18.0352C68.7462 17.5664 68.6094 17.168 68.4141 16.8398C68.2188 16.5039 67.9571 16.2461 67.629 16.0664C67.3008 15.8789 66.8907 15.7852 66.3985 15.7852C65.9141 15.7852 65.5118 15.8828 65.1915 16.0781C64.879 16.2734 64.629 16.543 64.4415 16.8867C64.254 17.2305 64.1212 17.6328 64.043 18.0938C63.9727 18.5547 63.9376 19.0469 63.9376 19.5703C63.9376 20.7656 64.1485 21.6641 64.5704 22.2656C64.9922 22.8672 65.6055 23.168 66.4102 23.168C66.7852 23.1602 67.1251 23.0898 67.4297 22.957C67.7422 22.8164 68.0118 22.6016 68.2383 22.3125C68.4649 22.0234 68.6407 21.6562 68.7657 21.2109C68.8907 20.7656 68.9532 20.2266 68.9532 19.5938Z" fill="#062A3F"/>
<path id="Vector_4" d="M73.5684 19.5938C73.5684 18.7656 73.7012 17.9844 73.9668 17.25C74.2403 16.5078 74.6465 15.8594 75.1856 15.3047C75.7325 14.75 76.4121 14.3086 77.2246 13.9805C78.045 13.6523 79.0059 13.4883 80.1075 13.4883C81.1621 13.4883 82.0957 13.6406 82.9082 13.9453C83.7207 14.25 84.4043 14.6758 84.959 15.2227C85.5137 15.7617 85.9356 16.4062 86.2246 17.1562C86.5137 17.8984 86.6582 18.7109 86.6582 19.5938C86.6582 20.4141 86.5215 21.1914 86.2481 21.9258C85.9746 22.6523 85.5645 23.293 85.0176 23.8477C84.4707 24.3945 83.7871 24.832 82.9668 25.1602C82.1465 25.4805 81.1934 25.6406 80.1075 25.6406C79.0371 25.6406 78.0918 25.4883 77.2715 25.1836C76.459 24.8711 75.7754 24.4453 75.2207 23.9062C74.6739 23.3594 74.2598 22.7188 73.9785 21.9844C73.7051 21.2422 73.5684 20.4453 73.5684 19.5938ZM77.4707 19.5938C77.4707 20.1094 77.5176 20.6016 77.6114 21.0703C77.7051 21.5312 77.8535 21.9375 78.0567 22.2891C78.2676 22.6406 78.541 22.9219 78.877 23.1328C79.2129 23.3359 79.6231 23.4375 80.1075 23.4375C80.5528 23.4375 80.9395 23.3438 81.2676 23.1562C81.6035 22.9688 81.877 22.707 82.0879 22.3711C82.3067 22.0352 82.4707 21.6328 82.5801 21.1641C82.6895 20.6875 82.7442 20.1641 82.7442 19.5938C82.7442 19.0781 82.6934 18.5898 82.5918 18.1289C82.4981 17.6602 82.3457 17.25 82.1348 16.8984C81.9239 16.5391 81.6504 16.2578 81.3145 16.0547C80.9864 15.8438 80.584 15.7383 80.1075 15.7383C79.6309 15.7383 79.2246 15.8398 78.8887 16.043C78.5528 16.2461 78.2793 16.5234 78.0684 16.875C77.8575 17.2266 77.7051 17.6367 77.6114 18.1055C77.5176 18.5742 77.4707 19.0703 77.4707 19.5938Z" fill="#062A3F"/>
<path id="Vector_5" d="M91.6836 9.53906C91.6836 9.79688 91.625 10.0273 91.5078 10.2305C91.3906 10.4258 91.2383 10.5898 91.0508 10.7227C90.8633 10.8555 90.6445 10.957 90.3945 11.0273C90.1524 11.0898 89.9024 11.1211 89.6445 11.1211C89.3711 11.1211 89.1094 11.0859 88.8594 11.0156C88.6172 10.9453 88.4024 10.8438 88.2149 10.7109C88.0274 10.5703 87.8789 10.4023 87.7695 10.207C87.6602 10.0117 87.6055 9.78906 87.6055 9.53906C87.6055 9.3125 87.6563 9.10547 87.7578 8.91797C87.8672 8.72266 88.0117 8.55469 88.1914 8.41406C88.3711 8.27344 88.586 8.16406 88.836 8.08594C89.086 8.00781 89.3594 7.96875 89.6563 7.96875C89.9141 7.96875 90.1641 8.00391 90.4063 8.07422C90.6563 8.14453 90.875 8.24609 91.0625 8.37891C91.25 8.51172 91.3985 8.67578 91.5078 8.87109C91.625 9.06641 91.6836 9.28906 91.6836 9.53906ZM91.5078 23.1914C91.5078 23.9336 91.3555 24.5039 91.0508 24.9023C90.7539 25.3008 90.2578 25.5 89.5625 25.5C88.9063 25.5 88.4414 25.3008 88.168 24.9023C87.9024 24.5039 87.7695 23.9336 87.7695 23.1914V16.0195C87.7695 15.2773 87.9024 14.707 88.168 14.3086C88.4414 13.9102 88.9063 13.7109 89.5625 13.7109C90.2578 13.7109 90.7539 13.9102 91.0508 14.3086C91.3555 14.707 91.5078 15.2773 91.5078 16.0195V23.1914Z" fill="#062A3F"/>
<path id="Vector_6" d="M96.8965 19.5703C96.8965 20.0938 96.9355 20.582 97.0137 21.0352C97.0996 21.4883 97.2402 21.8867 97.4355 22.2305C97.6387 22.5664 97.9043 22.832 98.2324 23.0273C98.5683 23.2227 98.9824 23.3203 99.4746 23.3203C99.9277 23.3203 100.307 23.2266 100.612 23.0391C100.924 22.8438 101.174 22.5781 101.362 22.2422C101.549 21.8984 101.682 21.4961 101.76 21.0352C101.846 20.5742 101.889 20.0742 101.889 19.5352C101.889 19.1055 101.858 18.668 101.795 18.2227C101.733 17.7695 101.616 17.3594 101.444 16.9922C101.272 16.625 101.034 16.3242 100.729 16.0898C100.424 15.8555 100.026 15.7383 99.5332 15.7383C99.041 15.7383 98.623 15.8164 98.2793 15.9727C97.9433 16.1289 97.6699 16.3672 97.459 16.6875C97.2558 17.0078 97.1113 17.4102 97.0254 17.8945C96.9394 18.3711 96.8965 18.9297 96.8965 19.5703ZM96.8848 16.0195C97.0801 15.6055 97.3301 15.2422 97.6348 14.9297C97.9394 14.6172 98.2754 14.3555 98.6426 14.1445C99.0098 13.9336 99.3926 13.7773 99.791 13.6758C100.198 13.5664 100.6 13.5117 100.998 13.5117C101.717 13.5117 102.366 13.6719 102.944 13.9922C103.522 14.3125 104.014 14.75 104.42 15.3047C104.834 15.8516 105.151 16.5 105.37 17.25C105.588 17.9922 105.698 18.7891 105.698 19.6406C105.698 20.5234 105.58 21.332 105.346 22.0664C105.12 22.8008 104.795 23.4336 104.373 23.9648C103.959 24.4883 103.459 24.8984 102.873 25.1953C102.295 25.4922 101.651 25.6406 100.94 25.6406C100.065 25.6406 99.2832 25.4375 98.5957 25.0312C97.9082 24.625 97.3379 24.0547 96.8848 23.3203V27.5391C96.8848 28.2812 96.7324 28.8516 96.4277 29.25C96.1308 29.6484 95.6348 29.8477 94.9394 29.8477C94.2832 29.8477 93.8183 29.6484 93.5449 29.25C93.2793 28.8516 93.1465 28.2812 93.1465 27.5391V16.0195C93.1465 15.2773 93.2793 14.707 93.5449 14.3086C93.8183 13.9102 94.2832 13.7109 94.9394 13.7109C95.6348 13.7109 96.1308 13.9102 96.4277 14.3086C96.7324 14.707 96.8848 15.2773 96.8848 16.0195Z" fill="#062A3F"/>
<path id="Vector_7" d="M109.821 16.8516C109.821 17.1562 109.954 17.3945 110.219 17.5664C110.485 17.7305 110.852 17.8672 111.321 17.9766C111.766 18.0781 112.223 18.1758 112.692 18.2695C113.161 18.3633 113.618 18.4727 114.063 18.5977C114.508 18.7148 114.926 18.8555 115.317 19.0195C115.707 19.1836 116.051 19.3906 116.348 19.6406C116.645 19.8828 116.879 20.1797 117.051 20.5312C117.223 20.875 117.309 21.2891 117.309 21.7734C117.309 22.3828 117.184 22.9258 116.934 23.4023C116.684 23.8711 116.329 24.2695 115.868 24.5977C115.415 24.9258 114.872 25.1797 114.239 25.3594C113.606 25.5391 112.907 25.6328 112.141 25.6406C111.415 25.6406 110.715 25.5938 110.043 25.5C109.372 25.4141 108.774 25.2773 108.25 25.0898C107.735 24.9023 107.321 24.6719 107.008 24.3984C106.696 24.1172 106.54 23.7891 106.54 23.4141C106.54 23.0859 106.645 22.832 106.856 22.6523C107.067 22.4727 107.336 22.3828 107.665 22.3828C107.79 22.3828 107.938 22.4062 108.11 22.4531C108.282 22.5 108.469 22.5586 108.672 22.6289C108.875 22.6992 109.09 22.7773 109.317 22.8633C109.551 22.9414 109.793 23.0117 110.043 23.0742C110.356 23.1602 110.676 23.2305 111.004 23.2852C111.34 23.332 111.684 23.3555 112.036 23.3555C112.254 23.3555 112.469 23.3359 112.68 23.2969C112.891 23.25 113.079 23.1836 113.243 23.0977C113.415 23.0039 113.555 22.8867 113.665 22.7461C113.774 22.6055 113.84 22.4336 113.864 22.2305C113.887 22.1836 113.907 22.1367 113.922 22.0898C113.938 22.043 113.946 21.9883 113.946 21.9258C113.946 21.707 113.844 21.5117 113.641 21.3398C113.446 21.168 113.168 21.0312 112.809 20.9297C112.207 20.7891 111.633 20.6602 111.086 20.543C110.54 20.4258 110.032 20.3008 109.563 20.168C109.102 20.0352 108.68 19.8828 108.297 19.7109C107.922 19.5391 107.602 19.3281 107.336 19.0781C107.079 18.8281 106.875 18.5273 106.727 18.1758C106.586 17.8242 106.516 17.3984 106.516 16.8984C106.516 16.3594 106.637 15.8789 106.879 15.457C107.129 15.0273 107.485 14.668 107.946 14.3789C108.407 14.0898 108.965 13.8711 109.622 13.7227C110.278 13.5664 111.02 13.4883 111.848 13.4883C113.332 13.4883 114.461 13.668 115.235 14.0273C116.016 14.3789 116.407 14.8398 116.407 15.4102C116.407 15.7305 116.301 15.9766 116.09 16.1484C115.879 16.3125 115.625 16.3945 115.329 16.3945C115.172 16.3945 115.008 16.3672 114.836 16.3125C114.672 16.25 114.473 16.1836 114.239 16.1133C114.004 16.0352 113.723 15.9688 113.395 15.9141C113.075 15.8516 112.676 15.8203 112.2 15.8203C111.84 15.8203 111.512 15.8359 111.215 15.8672C110.926 15.8984 110.676 15.9531 110.465 16.0312C110.262 16.1094 110.102 16.2148 109.985 16.3477C109.875 16.4805 109.821 16.6484 109.821 16.8516Z" fill="#062A3F"/>
<path id="Vector_8" d="M122.065 21.1523C122.065 21.5195 122.112 21.8398 122.206 22.1133C122.307 22.3867 122.444 22.6172 122.616 22.8047C122.788 22.9844 122.987 23.1211 123.213 23.2148C123.448 23.3008 123.698 23.3438 123.963 23.3438C124.276 23.3438 124.577 23.2969 124.866 23.2031C125.155 23.1094 125.409 22.9648 125.628 22.7695C125.854 22.5742 126.034 22.3281 126.167 22.0312C126.299 21.7344 126.366 21.3867 126.366 20.9883V16.0195C126.366 15.2773 126.499 14.707 126.764 14.3086C127.038 13.9102 127.503 13.7109 128.159 13.7109C128.854 13.7109 129.35 13.9102 129.647 14.3086C129.952 14.707 130.104 15.2773 130.104 16.0195V23.1914C130.104 23.9336 129.952 24.5039 129.647 24.9023C129.35 25.3008 128.854 25.5 128.159 25.5C127.503 25.5 127.038 25.3008 126.764 24.9023C126.499 24.5039 126.366 23.9336 126.366 23.1914C126.202 23.5508 125.987 23.8789 125.721 24.1758C125.463 24.4727 125.159 24.7305 124.807 24.9492C124.463 25.1602 124.081 25.3242 123.659 25.4414C123.245 25.5586 122.795 25.6172 122.311 25.6172C121.788 25.6172 121.284 25.5273 120.799 25.3477C120.323 25.1602 119.901 24.8867 119.534 24.5273C119.167 24.1602 118.874 23.707 118.655 23.168C118.436 22.6289 118.327 22 118.327 21.2812V16.0195C118.327 15.2773 118.46 14.707 118.725 14.3086C118.999 13.9102 119.463 13.7109 120.12 13.7109C120.815 13.7109 121.311 13.9102 121.608 14.3086C121.913 14.707 122.065 15.2773 122.065 16.0195V21.1523Z" fill="#062A3F"/>
<path id="Vector_9" d="M131.801 16.0195C131.801 15.2773 131.934 14.707 132.2 14.3086C132.473 13.9102 132.938 13.7109 133.594 13.7109C134.29 13.7109 134.786 13.9102 135.083 14.3086C135.387 14.707 135.54 15.2773 135.54 16.0195C135.696 15.6445 135.907 15.3047 136.173 15C136.446 14.6875 136.755 14.4219 137.098 14.2031C137.45 13.9844 137.829 13.8164 138.235 13.6992C138.641 13.5742 139.063 13.5117 139.501 13.5117C139.907 13.5117 140.305 13.5664 140.696 13.6758C141.094 13.7773 141.462 13.9453 141.798 14.1797C142.141 14.4062 142.442 14.6953 142.7 15.0469C142.958 15.3984 143.157 15.8203 143.298 16.3125C143.54 15.7891 143.825 15.3477 144.153 14.9883C144.481 14.6289 144.837 14.3398 145.219 14.1211C145.602 13.9023 146.001 13.7461 146.415 13.6523C146.837 13.5586 147.258 13.5117 147.68 13.5117C148.18 13.5117 148.657 13.6016 149.11 13.7812C149.571 13.9609 149.973 14.2344 150.317 14.6016C150.669 14.9609 150.946 15.418 151.149 15.9727C151.36 16.5195 151.465 17.1602 151.465 17.8945V23.1914C151.465 23.9336 151.313 24.5039 151.008 24.9023C150.712 25.3008 150.215 25.5 149.52 25.5C148.864 25.5 148.399 25.3008 148.126 24.9023C147.86 24.5039 147.727 23.9336 147.727 23.1914V18.0586C147.727 17.707 147.68 17.3945 147.587 17.1211C147.493 16.8398 147.36 16.6055 147.188 16.418C147.024 16.2227 146.829 16.0781 146.602 15.9844C146.376 15.8828 146.133 15.832 145.876 15.832C145.555 15.832 145.251 15.8828 144.962 15.9844C144.673 16.0859 144.419 16.2422 144.2 16.4531C143.989 16.6641 143.817 16.9336 143.684 17.2617C143.559 17.5898 143.497 17.9844 143.497 18.4453V23.1914C143.497 23.9336 143.344 24.5039 143.04 24.9023C142.743 25.3008 142.247 25.5 141.551 25.5C140.895 25.5 140.43 25.3008 140.157 24.9023C139.891 24.5039 139.758 23.9336 139.758 23.1914V18.2812C139.758 17.4766 139.59 16.8672 139.255 16.4531C138.926 16.0391 138.477 15.832 137.907 15.832C137.571 15.832 137.258 15.8867 136.969 15.9961C136.68 16.1055 136.43 16.2656 136.219 16.4766C136.008 16.6875 135.84 16.9492 135.715 17.2617C135.598 17.5742 135.54 17.9336 135.54 18.3398V23.1914C135.54 23.9336 135.387 24.5039 135.083 24.9023C134.786 25.3008 134.29 25.5 133.594 25.5C132.938 25.5 132.473 25.3008 132.2 24.9023C131.934 24.5039 131.801 23.9336 131.801 23.1914V16.0195Z" fill="#062A3F"/>
<path id="Vector_10" d="M17 23.5C13.6863 23.5 11 20.8137 11 17.5C11 14.1863 13.6863 11.5 17 11.5C20.3137 11.5 23 14.1863 23 17.5C23 20.8137 20.3137 23.5 17 23.5Z" fill="#51A3EE"/>
<path id="Vector_11" d="M5.37605 19.5496C3.6373 19.8562 2.44548 21.5358 3.11293 23.1704C4.04477 25.4524 5.5314 27.4856 7.45871 29.0744C10.2146 31.3461 13.6906 32.56 17.2616 32.4977C20.8326 32.4354 24.2642 31.1009 26.9392 28.7343C28.8098 27.0793 30.2246 24.9954 31.0763 22.6823C31.6863 21.0254 30.4365 19.3884 28.6881 19.1427C26.9398 18.897 25.37 20.1696 24.5064 21.7096C24.0383 22.5443 23.4306 23.3016 22.7026 23.9457C21.1678 25.3036 19.1989 26.0692 17.1501 26.105C15.1012 26.1407 13.1068 25.4443 11.5256 24.1408C10.7755 23.5225 10.1418 22.7869 9.64483 21.969C8.72804 20.4601 7.1148 19.243 5.37605 19.5496Z" fill="#51A3EE"/>
<path id="Vector_12" d="M31.884 19.3745C31.9606 18.7604 32 18.1348 32 17.5C32 9.21573 25.2843 2.5 17 2.5C8.71573 2.5 2 9.21573 2 17.5C2 18.3147 2.06495 19.1142 2.18996 19.8937C2.87894 18.9505 3.95426 18.2772 5.11576 18.0724C6.37245 17.8508 7.51458 18.1556 8.48027 18.7253C8.42322 18.3251 8.3937 17.916 8.3937 17.5C8.3937 12.7469 12.2469 8.8937 17 8.8937C21.7531 8.8937 25.6063 12.7469 25.6063 17.5C25.6063 17.8134 25.5895 18.1229 25.5569 18.4276C26.5022 17.8243 27.6332 17.4796 28.8971 17.6573C30.0647 17.8214 31.1625 18.4564 31.884 19.3745Z" fill="#0E4F8B"/>
</g>
</svg>
