<svg width="160" height="33" viewBox="0 0 160 33" fill="none" xmlns="http://www.w3.org/2000/svg">
<g id="Frame" style="mix-blend-mode:luminosity" clip-path="url(#clip0_1_517)">
<path id="Vector" d="M15.9046 0.595398H0V16.5H15.9046V0.595398Z" fill="#59BFD9"/>
<path id="Vector_2" d="M15.9046 16.5H0V32.4046H15.9046V16.5Z" fill="#59BFD9"/>
<path id="Vector_3" d="M41.9883 22.9748H52.6507V20.0713H45.5099V6.31836H41.9883V22.9748Z" fill="#062A3F"/>
<path id="Vector_4" d="M59.875 23.2188C63.665 23.2188 66.0237 20.6243 66.0237 16.7774C66.0237 12.9061 63.665 10.3198 59.875 10.3198C56.0852 10.3198 53.7266 12.9061 53.7266 16.7774C53.7266 20.6243 56.0852 23.2188 59.875 23.2188ZM59.8912 20.5349C58.1426 20.5349 57.2482 18.9326 57.2482 16.753C57.2482 14.5733 58.1426 12.963 59.8912 12.963C61.6073 12.963 62.5021 14.5733 62.5021 16.753C62.5021 18.9326 61.6073 20.5349 59.8912 20.5349Z" fill="#062A3F"/>
<path id="Vector_5" d="M73.2174 27.9196C76.788 27.9196 79.3254 26.293 79.3254 23.0967V10.4824H75.8853V12.5808H75.7552C75.2914 11.5641 74.2748 10.3198 72.1846 10.3198C69.4439 10.3198 67.126 12.4506 67.126 16.7042C67.126 20.8602 69.3787 22.7958 72.1929 22.7958C74.1854 22.7958 75.2997 21.7955 75.7552 20.7626H75.9015V23.0479C75.9015 24.764 74.8034 25.4309 73.2989 25.4309C71.7698 25.4309 70.9971 24.764 70.7125 24.0077L67.5083 24.4387C67.9231 26.4069 69.8504 27.9196 73.2174 27.9196ZM73.2909 20.1933C71.591 20.1933 70.6638 18.8432 70.6638 16.6879C70.6638 14.5652 71.5748 13.0769 73.2909 13.0769C74.9742 13.0769 75.9177 14.5002 75.9177 16.6879C75.9177 18.892 74.958 20.1933 73.2909 20.1933Z" fill="#062A3F"/>
<path id="Vector_6" d="M87.039 23.2188C90.8291 23.2188 93.1877 20.6243 93.1877 16.7774C93.1877 12.9061 90.8291 10.3198 87.039 10.3198C83.249 10.3198 80.8906 12.9061 80.8906 16.7774C80.8906 20.6243 83.249 23.2188 87.039 23.2188ZM87.0552 20.5349C85.3067 20.5349 84.4122 18.9326 84.4122 16.753C84.4122 14.5733 85.3067 12.963 87.0552 12.963C88.7713 12.963 89.6661 14.5733 89.6661 16.753C89.6661 18.9326 88.7713 20.5349 87.0552 20.5349Z" fill="#062A3F"/>
<path id="Vector_7" d="M94.7541 22.9747H98.2188V10.4824H94.7541V22.9747ZM96.4947 8.8721C97.5276 8.8721 98.3734 8.0832 98.3734 7.11537C98.3734 6.15566 97.5276 5.36676 96.4947 5.36676C95.4698 5.36676 94.624 6.15566 94.624 7.11537C94.624 8.0832 95.4698 8.8721 96.4947 8.8721Z" fill="#062A3F"/>
<path id="Vector_8" d="M100.307 27.6594H103.771V20.974H103.877C104.357 22.0151 105.406 23.1781 107.423 23.1781C110.27 23.1781 112.49 20.9252 112.49 16.7449C112.49 12.4506 110.172 10.3198 107.431 10.3198C105.341 10.3198 104.341 11.5641 103.877 12.5808H103.723V10.4824H100.307V27.6594ZM103.698 16.7286C103.698 14.5002 104.642 13.0769 106.325 13.0769C108.041 13.0769 108.952 14.5652 108.952 16.7286C108.952 18.9082 108.025 20.421 106.325 20.421C104.658 20.421 103.698 18.957 103.698 16.7286Z" fill="#062A3F"/>
<path id="Vector_9" d="M124.507 14.0447C124.198 11.7431 122.343 10.3198 119.188 10.3198C115.991 10.3198 113.885 11.8 113.893 14.2073C113.885 16.078 115.064 17.2898 117.504 17.7777L119.668 18.2088C120.757 18.4284 121.254 18.8269 121.27 19.4532C121.254 20.1933 120.448 20.7219 119.237 20.7219C118 20.7219 117.179 20.1933 116.967 19.1766L113.56 19.3556C113.885 21.7467 115.918 23.2188 119.228 23.2188C122.465 23.2188 124.783 21.5677 124.791 19.1034C124.783 17.2979 123.604 16.2162 121.18 15.7201L118.919 15.2647C117.756 15.0125 117.325 14.614 117.333 14.0122C117.325 13.2639 118.171 12.7759 119.245 12.7759C120.448 12.7759 121.164 13.4347 121.335 14.2399L124.507 14.0447Z" fill="#062A3F"/>
<path id="Vector_10" d="M134.297 17.6557C134.306 19.3312 133.159 20.2095 131.914 20.2095C130.605 20.2095 129.759 19.2905 129.751 17.8184V10.4824H126.286V18.4365C126.294 21.3563 128.002 23.1374 130.515 23.1374C132.394 23.1374 133.744 22.1696 134.306 20.7056H134.436V22.9747H137.762V10.4824H134.297V17.6557Z" fill="#062A3F"/>
<path id="Vector_11" d="M139.846 22.9747H143.311V15.4761C143.311 14.0935 144.189 13.1745 145.344 13.1745C146.482 13.1745 147.247 13.9552 147.247 15.1833V22.9747H150.606V15.346C150.606 14.0528 151.346 13.1745 152.607 13.1745C153.713 13.1745 154.542 13.8658 154.542 15.2565V22.9747H157.999V14.5733C157.999 11.8651 156.388 10.3198 154.062 10.3198C152.233 10.3198 150.809 11.2551 150.297 12.6865H150.166C149.768 11.2388 148.491 10.3198 146.775 10.3198C145.092 10.3198 143.815 11.2144 143.294 12.6865H143.148V10.4824H139.846V22.9747Z" fill="#062A3F"/>
<path id="Vector_12" d="M31.8089 0.595398H15.9043V16.5H31.8089V0.595398Z" fill="#D95959"/>
<path id="Vector_13" d="M15.9043 16.5H31.8089L15.9043 32.4046V16.5Z" fill="#59BFD9"/>
<path id="Vector_14" d="M41.9883 22.9748H52.6507V20.0713H45.5099V6.31836H41.9883V22.9748Z" fill="#062A3F"/>
<path id="Vector_15" d="M59.875 23.2188C63.665 23.2188 66.0237 20.6243 66.0237 16.7774C66.0237 12.9061 63.665 10.3198 59.875 10.3198C56.0852 10.3198 53.7266 12.9061 53.7266 16.7774C53.7266 20.6243 56.0852 23.2188 59.875 23.2188ZM59.8912 20.5349C58.1426 20.5349 57.2482 18.9326 57.2482 16.753C57.2482 14.5733 58.1426 12.963 59.8912 12.963C61.6073 12.963 62.5021 14.5733 62.5021 16.753C62.5021 18.9326 61.6073 20.5349 59.8912 20.5349Z" fill="#062A3F"/>
<path id="Vector_16" d="M73.2174 27.9196C76.788 27.9196 79.3254 26.293 79.3254 23.0967V10.4824H75.8853V12.5808H75.7552C75.2914 11.5641 74.2748 10.3198 72.1846 10.3198C69.4439 10.3198 67.126 12.4506 67.126 16.7042C67.126 20.8602 69.3787 22.7958 72.1929 22.7958C74.1854 22.7958 75.2997 21.7955 75.7552 20.7626H75.9015V23.0479C75.9015 24.764 74.8034 25.4309 73.2989 25.4309C71.7698 25.4309 70.9971 24.764 70.7125 24.0077L67.5083 24.4387C67.9231 26.4069 69.8504 27.9196 73.2174 27.9196ZM73.2909 20.1933C71.591 20.1933 70.6638 18.8432 70.6638 16.6879C70.6638 14.5652 71.5748 13.0769 73.2909 13.0769C74.9742 13.0769 75.9177 14.5002 75.9177 16.6879C75.9177 18.892 74.958 20.1933 73.2909 20.1933Z" fill="#062A3F"/>
<path id="Vector_17" d="M87.039 23.2188C90.8291 23.2188 93.1877 20.6243 93.1877 16.7774C93.1877 12.9061 90.8291 10.3198 87.039 10.3198C83.249 10.3198 80.8906 12.9061 80.8906 16.7774C80.8906 20.6243 83.249 23.2188 87.039 23.2188ZM87.0552 20.5349C85.3067 20.5349 84.4122 18.9326 84.4122 16.753C84.4122 14.5733 85.3067 12.963 87.0552 12.963C88.7713 12.963 89.6661 14.5733 89.6661 16.753C89.6661 18.9326 88.7713 20.5349 87.0552 20.5349Z" fill="#062A3F"/>
<path id="Vector_18" d="M94.7541 22.9747H98.2188V10.4824H94.7541V22.9747ZM96.4947 8.8721C97.5276 8.8721 98.3734 8.0832 98.3734 7.11537C98.3734 6.15566 97.5276 5.36676 96.4947 5.36676C95.4698 5.36676 94.624 6.15566 94.624 7.11537C94.624 8.0832 95.4698 8.8721 96.4947 8.8721Z" fill="#062A3F"/>
<path id="Vector_19" d="M100.307 27.6594H103.771V20.974H103.877C104.357 22.0151 105.406 23.1781 107.423 23.1781C110.27 23.1781 112.49 20.9252 112.49 16.7449C112.49 12.4506 110.172 10.3198 107.431 10.3198C105.341 10.3198 104.341 11.5641 103.877 12.5808H103.723V10.4824H100.307V27.6594ZM103.698 16.7286C103.698 14.5002 104.642 13.0769 106.325 13.0769C108.041 13.0769 108.952 14.5652 108.952 16.7286C108.952 18.9082 108.025 20.421 106.325 20.421C104.658 20.421 103.698 18.957 103.698 16.7286Z" fill="#062A3F"/>
<path id="Vector_20" d="M124.507 14.0447C124.198 11.7431 122.343 10.3198 119.188 10.3198C115.991 10.3198 113.885 11.8 113.893 14.2073C113.885 16.078 115.064 17.2898 117.504 17.7777L119.668 18.2088C120.757 18.4284 121.254 18.8269 121.27 19.4532C121.254 20.1933 120.448 20.7219 119.237 20.7219C118 20.7219 117.179 20.1933 116.967 19.1766L113.56 19.3556C113.885 21.7467 115.918 23.2188 119.228 23.2188C122.465 23.2188 124.783 21.5677 124.791 19.1034C124.783 17.2979 123.604 16.2162 121.18 15.7201L118.919 15.2647C117.756 15.0125 117.325 14.614 117.333 14.0122C117.325 13.2639 118.171 12.7759 119.245 12.7759C120.448 12.7759 121.164 13.4347 121.335 14.2399L124.507 14.0447Z" fill="#062A3F"/>
<path id="Vector_21" d="M134.297 17.6557C134.306 19.3312 133.159 20.2095 131.914 20.2095C130.605 20.2095 129.759 19.2905 129.751 17.8184V10.4824H126.286V18.4365C126.294 21.3563 128.002 23.1374 130.515 23.1374C132.394 23.1374 133.744 22.1696 134.306 20.7056H134.436V22.9747H137.762V10.4824H134.297V17.6557Z" fill="#062A3F"/>
<path id="Vector_22" d="M139.846 22.9747H143.311V15.4761C143.311 14.0935 144.189 13.1745 145.344 13.1745C146.482 13.1745 147.247 13.9552 147.247 15.1833V22.9747H150.606V15.346C150.606 14.0528 151.346 13.1745 152.607 13.1745C153.713 13.1745 154.542 13.8658 154.542 15.2565V22.9747H157.999V14.5733C157.999 11.8651 156.388 10.3198 154.062 10.3198C152.233 10.3198 150.809 11.2551 150.297 12.6865H150.166C149.768 11.2388 148.491 10.3198 146.775 10.3198C145.092 10.3198 143.815 11.2144 143.294 12.6865H143.148V10.4824H139.846V22.9747Z" fill="#062A3F"/>
</g>
<defs>
<clipPath id="clip0_1_517">
<rect width="160" height="31.8091" fill="white" transform="translate(0 0.595398)"/>
</clipPath>
</defs>
</svg>
