<svg width="139" height="30" viewBox="0 0 139 30" fill="none" xmlns="http://www.w3.org/2000/svg">
<g id="Frame" style="mix-blend-mode:luminosity">
<path id="Vector" d="M21.49 23.759L3.55 11.384C1.732 10.13 2.35 7.51898 4.617 6.90498L23.684 1.72998C24.0879 1.58424 24.5207 1.53693 24.9466 1.59198C25.3724 1.64703 25.779 1.80285 26.1326 2.04651C26.4861 2.29017 26.7765 2.61464 26.9795 2.99299C27.1825 3.37134 27.2924 3.79266 27.3 4.22198L26.17 21.771C26.036 23.854 23.308 25.013 21.49 23.759Z" fill="#E9327C"/>
<path id="Vector_2" d="M15.7998 26.814L5.23074 6.14504C4.98914 5.6722 4.88283 5.14181 4.92352 4.61238C4.96421 4.08295 5.15033 3.57504 5.46134 3.14467C5.77236 2.7143 6.19619 2.37818 6.6861 2.17338C7.17601 1.96858 7.71296 1.90306 8.23774 1.98405L27.8248 5.00704C28.2757 5.07665 28.7037 5.2523 29.0736 5.51955C29.4434 5.78681 29.7445 6.13803 29.9522 6.54434C30.1598 6.95065 30.2681 7.40044 30.268 7.85674C30.2679 8.31303 30.1595 8.7628 29.9518 9.16904L20.9288 26.815C20.6865 27.2865 20.3189 27.6821 19.8664 27.9582C19.4139 28.2344 18.8941 28.3804 18.364 28.3803C17.8339 28.3802 17.3141 28.234 16.8617 27.9577C16.4093 27.6813 16.0419 27.2856 15.7998 26.814Z" fill="#1DACE3"/>
<path id="Vector_3" d="M27.252 4.91801L17.488 3.41101L5.5 6.66601L10.285 16.027L21.49 23.759C21.7372 23.9277 22.0091 24.0569 22.296 24.142L26.552 15.819L27.252 4.91801Z" fill="#062A3F"/>
<path id="Vector_4" d="M76.709 7.33402C76.709 6.97109 76.8166 6.61632 77.0182 6.31455C77.2199 6.01279 77.5065 5.77759 77.8418 5.6387C78.1771 5.49982 78.546 5.46348 78.902 5.53428C79.2579 5.60509 79.5849 5.77986 79.8415 6.03648C80.0982 6.29311 80.2729 6.62008 80.3437 6.97603C80.4145 7.33199 80.3782 7.70095 80.2393 8.03625C80.1004 8.37155 79.8652 8.65814 79.5635 8.85977C79.2617 9.0614 78.9069 9.16902 78.544 9.16902C78.0588 9.16408 77.595 8.96916 77.2519 8.6261C76.9089 8.28303 76.7139 7.81916 76.709 7.33402ZM77.015 10.066H80.074V20.26H77.015V10.066Z" fill="#062A3F"/>
<path id="Vector_5" d="M93.2834 15.163C93.319 15.8368 93.2209 16.511 92.995 17.1468C92.769 17.7825 92.4196 18.3674 91.9669 18.8677C91.5141 19.3679 90.9669 19.7737 90.3567 20.0618C89.7465 20.3498 89.0854 20.5144 88.4114 20.546C87.8445 20.5768 87.2778 20.4812 86.7523 20.2661C86.2269 20.0509 85.7559 19.7216 85.3734 19.302V24.338H82.3154V10.066H85.3734V11.024C85.756 10.6045 86.227 10.2754 86.7525 10.0604C87.2779 9.84545 87.8446 9.74999 88.4114 9.78098C89.0854 9.81247 89.7464 9.97691 90.3566 10.2648C90.9668 10.5528 91.514 10.9585 91.9668 11.4587C92.4196 11.9589 92.769 12.5436 92.995 13.1794C93.2209 13.8151 93.319 14.4892 93.2834 15.163ZM90.2254 15.163C90.2134 14.6857 90.0609 14.2226 89.787 13.8315C89.5131 13.4405 89.1299 13.1389 88.6855 12.9646C88.241 12.7902 87.755 12.7509 87.2883 12.8514C86.8216 12.9519 86.3948 13.1878 86.0615 13.5296C85.7282 13.8714 85.5031 14.304 85.4144 14.7731C85.3257 15.2422 85.3774 15.7271 85.5629 16.167C85.7484 16.6069 86.0595 16.9823 86.4573 17.2463C86.8552 17.5103 87.322 17.651 87.7994 17.651C88.1273 17.6658 88.4545 17.611 88.7597 17.4904C89.0649 17.3697 89.3411 17.1858 89.5702 16.9509C89.7993 16.7159 89.9761 16.4352 90.0891 16.127C90.202 15.8189 90.2485 15.4903 90.2254 15.163Z" fill="#062A3F"/>
<path id="Vector_6" d="M102.723 17.2C102.723 19.545 100.684 20.544 98.4816 20.544C97.5921 20.6245 96.6988 20.4362 95.9174 20.0035C95.136 19.5709 94.5025 18.9137 94.0986 18.117L96.7486 16.609C96.8564 16.9773 97.0872 17.2974 97.4027 17.5158C97.7181 17.7342 98.099 17.8377 98.4816 17.809C99.2156 17.809 99.5816 17.584 99.5816 17.177C99.5816 16.055 94.5666 16.647 94.5666 13.119C94.5666 10.897 96.4416 9.776 98.5666 9.776C99.3637 9.75098 100.153 9.94011 100.852 10.3237C101.552 10.7073 102.135 11.2713 102.542 11.957L99.9326 13.364C99.8185 13.0964 99.6281 12.8683 99.3852 12.7083C99.1422 12.5482 98.8575 12.4633 98.5666 12.464C98.0366 12.464 97.7106 12.664 97.7106 13.035C97.7076 14.205 102.723 13.43 102.723 17.2Z" fill="#062A3F"/>
<path id="Vector_7" d="M113.9 10.066V20.26H110.842V19.3C110.489 19.7229 110.04 20.0561 109.533 20.2724C109.027 20.4886 108.476 20.5817 107.926 20.544C105.867 20.544 104.114 19.076 104.114 16.323V10.066H107.172V15.877C107.146 16.12 107.174 16.3657 107.253 16.5969C107.332 16.8281 107.46 17.0394 107.629 17.216C107.798 17.3926 108.003 17.5302 108.23 17.6193C108.458 17.7085 108.702 17.7469 108.946 17.732C110.067 17.732 110.846 17.08 110.846 15.632V10.066H113.9Z" fill="#062A3F"/>
<path id="Vector_8" d="M131.428 14V20.26H128.37V14.266C128.37 13.247 127.88 12.594 126.902 12.594C125.882 12.594 125.312 13.308 125.312 14.511V20.26H122.253V14.266C122.253 13.247 121.764 12.594 120.785 12.594C119.766 12.594 119.195 13.308 119.195 14.511V20.26H116.137V10.066H119.2V11C119.517 10.5841 119.933 10.2543 120.41 10.0406C120.887 9.827 121.411 9.73636 121.932 9.77701C122.455 9.75142 122.977 9.86186 123.445 10.0976C123.913 10.3333 124.312 10.6862 124.603 11.122C124.942 10.6661 125.391 10.3035 125.908 10.0683C126.425 9.83305 126.994 9.73284 127.56 9.77701C129.9 9.78101 131.428 11.452 131.428 14Z" fill="#062A3F"/>
<path id="Vector_9" d="M134.019 10.003C135.273 10.003 136.289 8.9867 136.289 7.73301C136.289 6.47933 135.273 5.46301 134.019 5.46301C132.765 5.46301 131.749 6.47933 131.749 7.73301C131.749 8.9867 132.765 10.003 134.019 10.003Z" fill="#062A3F"/>
<path id="Vector_10" d="M34.957 5.37695H38.016V20.26H34.957V5.37695ZM39.748 15.163C39.7447 14.0942 40.0585 13.0485 40.6498 12.1583C41.2411 11.268 42.0833 10.5732 43.0697 10.1619C44.0562 9.75058 45.1424 9.64121 46.1911 9.84765C47.2397 10.0541 48.2035 10.567 48.9604 11.3216C49.7173 12.0761 50.2333 13.0382 50.443 14.0862C50.6527 15.1342 50.5468 16.2208 50.1386 17.2085C49.7304 18.1962 49.0383 19.0406 48.1499 19.6347C47.2615 20.2288 46.2168 20.546 45.148 20.546C44.4382 20.5535 43.734 20.4196 43.0765 20.152C42.4191 19.8844 41.8215 19.4884 41.3188 18.9873C40.816 18.4861 40.4182 17.8898 40.1485 17.2332C39.8788 16.5766 39.7427 15.8728 39.748 15.163ZM47.496 15.163C47.484 14.7019 47.3364 14.2547 47.0715 13.8772C46.8067 13.4997 46.4364 13.2086 46.007 13.0404C45.5775 12.8723 45.1081 12.8344 44.6573 12.9317C44.2065 13.0289 43.7944 13.257 43.4725 13.5872C43.1506 13.9175 42.9333 14.3353 42.8476 14.7884C42.762 15.2416 42.8118 15.7099 42.991 16.1349C43.1701 16.5598 43.4706 16.9225 43.8548 17.1776C44.239 17.4327 44.6899 17.5688 45.151 17.569C45.4668 17.578 45.7811 17.5214 46.0739 17.4029C46.3668 17.2845 46.6319 17.1066 46.8526 16.8805C47.0733 16.6545 47.2448 16.3852 47.3562 16.0896C47.4676 15.7939 47.5166 15.4784 47.5 15.163H47.496ZM62.745 10.063V19.748C62.745 23.173 60.074 24.62 57.363 24.62C56.4088 24.692 55.4531 24.4999 54.6007 24.0647C53.7484 23.6296 53.0323 22.9681 52.531 22.153L55.14 20.644C55.3506 21.0694 55.6861 21.4204 56.1016 21.6501C56.5171 21.8797 56.9927 21.977 57.465 21.929C57.7665 21.9701 58.0733 21.9431 58.3629 21.8498C58.6525 21.7565 58.9174 21.5995 59.1382 21.3901C59.3589 21.1808 59.5298 20.9246 59.6383 20.6403C59.7468 20.3561 59.7901 20.0511 59.765 19.748V18.81C59.4068 19.248 58.9509 19.596 58.434 19.8261C57.917 20.0562 57.3533 20.162 56.788 20.135C55.4425 20.0931 54.166 19.5292 53.229 18.5626C52.292 17.596 51.768 16.3027 51.768 14.9565C51.768 13.6102 52.292 12.3169 53.229 11.3503C54.166 10.3837 55.4425 9.81977 56.788 9.77795C57.3533 9.75091 57.917 9.85667 58.434 10.0868C58.9509 10.3169 59.4068 10.6649 59.765 11.103V10.063H62.745ZM59.769 14.956C59.7892 14.4636 59.6616 13.9765 59.4027 13.5572C59.1438 13.1379 58.7654 12.8056 58.3161 12.6031C57.8669 12.4006 57.3673 12.3371 56.8817 12.4208C56.3961 12.5045 55.9466 12.7315 55.591 13.0727C55.2354 13.4139 54.99 13.8536 54.8864 14.3353C54.7827 14.8171 54.8255 15.3188 55.0093 15.7761C55.193 16.2333 55.5094 16.6251 55.9176 16.9011C56.3258 17.1771 56.8073 17.3247 57.3 17.325C57.6213 17.3475 57.9438 17.3026 58.2467 17.1931C58.5496 17.0836 58.8262 16.9119 59.0588 16.689C59.2913 16.4662 59.4747 16.1971 59.597 15.8992C59.7193 15.6012 59.7779 15.2809 59.769 14.959V14.956ZM64.477 15.156C64.4737 14.0872 64.7875 13.0415 65.3788 12.1513C65.9701 11.261 66.8123 10.5662 67.7987 10.1549C68.7852 9.74358 69.8714 9.63421 70.9201 9.84065C71.9687 10.0471 72.9324 10.56 73.6894 11.3146C74.4463 12.0691 74.9623 13.0312 75.172 14.0792C75.3817 15.1272 75.2758 16.2138 74.8676 17.2015C74.4594 18.1892 73.7673 19.0336 72.8789 19.6277C71.9905 20.2218 70.9458 20.539 69.877 20.539C69.1678 20.5465 68.4642 20.4128 67.8072 20.1456C67.1502 19.8785 66.5529 19.4831 66.0503 18.9827C65.5476 18.4823 65.1497 17.8869 64.8796 17.231C64.6094 16.5752 64.4726 15.8722 64.477 15.163V15.156ZM72.225 15.156C72.2132 14.6947 72.0656 14.2471 71.8008 13.8692C71.5359 13.4914 71.1654 13.2001 70.7358 13.0317C70.3061 12.8633 69.8364 12.8254 69.3853 12.9227C68.9342 13.0199 68.5218 13.2481 68.1998 13.5785C67.8777 13.909 67.6602 14.3271 67.5746 14.7805C67.4889 15.2339 67.5389 15.7026 67.7182 16.1277C67.8976 16.5529 68.1983 16.9157 68.5828 17.1709C68.9674 17.426 69.4186 17.562 69.88 17.562C70.1949 17.5703 70.508 17.5136 70.7999 17.3953C71.0918 17.277 71.3561 17.0996 71.5763 16.8744C71.7964 16.6492 71.9677 16.3809 72.0793 16.0864C72.191 15.7919 72.2406 15.4775 72.225 15.163V15.156Z" fill="#062A3F"/>
</g>
</svg>
