<svg width="152" height="39" viewBox="0 0 152 39" fill="none" xmlns="http://www.w3.org/2000/svg">
<g id="Frame" style="mix-blend-mode:luminosity">
<path id="Vector" d="M53.0615 24.7767H61.9475V22.357H55.9964V10.8953H53.0615V24.7767Z" fill="#3C2979"/>
<path id="Vector_2" d="M67.9678 24.9801C71.1264 24.9801 73.0921 22.8179 73.0921 19.6119C73.0921 16.3855 71.1264 14.2301 67.9678 14.2301C64.8093 14.2301 62.8438 16.3855 62.8438 19.6119C62.8438 22.8179 64.8093 24.9801 67.9678 24.9801ZM67.9814 22.7433C66.5241 22.7433 65.7786 21.408 65.7786 19.5915C65.7786 17.775 66.5241 16.433 67.9814 16.433C69.4116 16.433 70.1571 17.775 70.1571 19.5915C70.1571 21.408 69.4116 22.7433 67.9814 22.7433Z" fill="#3C2979"/>
<path id="Vector_3" d="M79.0874 28.8978C82.063 28.8978 84.1777 27.5421 84.1777 24.8784V14.3657H81.3106V16.1144H81.2022C80.8158 15.2671 79.9686 14.2301 78.2266 14.2301C75.9424 14.2301 74.0107 16.006 74.0107 19.5509C74.0107 23.0144 75.8882 24.6276 78.2334 24.6276C79.894 24.6276 80.8226 23.7939 81.2022 22.9331H81.3242V24.8377C81.3242 26.2679 80.4091 26.8237 79.1552 26.8237C77.8809 26.8237 77.237 26.2679 76.9998 25.6375L74.3293 25.9968C74.6749 27.637 76.2813 28.8978 79.0874 28.8978ZM79.1484 22.4586C77.7318 22.4586 76.9591 21.3335 76.9591 19.5373C76.9591 17.7682 77.7183 16.5279 79.1484 16.5279C80.5515 16.5279 81.3377 17.714 81.3377 19.5373C81.3377 21.3741 80.5379 22.4586 79.1484 22.4586Z" fill="#3C2979"/>
<path id="Vector_4" d="M90.6066 24.9801C93.7652 24.9801 95.7308 22.8179 95.7308 19.6119C95.7308 16.3855 93.7652 14.2301 90.6066 14.2301C87.4481 14.2301 85.4824 16.3855 85.4824 19.6119C85.4824 22.8179 87.4481 24.9801 90.6066 24.9801ZM90.6202 22.7433C89.1629 22.7433 88.4173 21.408 88.4173 19.5915C88.4173 17.775 89.1629 16.433 90.6202 16.433C92.0503 16.433 92.7959 17.775 92.7959 19.5915C92.7959 21.408 92.0503 22.7433 90.6202 22.7433Z" fill="#3C2979"/>
<path id="Vector_5" d="M97.0362 24.7767H99.9236V14.3657H97.0362V24.7767ZM98.4867 13.0236C99.3475 13.0236 100.052 12.3662 100.052 11.5596C100.052 10.7598 99.3475 10.1023 98.4867 10.1023C97.6327 10.1023 96.9277 10.7598 96.9277 11.5596C96.9277 12.3662 97.6327 13.0236 98.4867 13.0236Z" fill="#3C2979"/>
<path id="Vector_6" d="M101.664 28.6809H104.551V23.1093H104.639C105.039 23.9769 105.913 24.9462 107.594 24.9462C109.967 24.9462 111.817 23.0687 111.817 19.5847C111.817 16.006 109.885 14.2301 107.601 14.2301C105.859 14.2301 105.026 15.2671 104.639 16.1144H104.51V14.3657H101.664V28.6809ZM104.49 19.5712C104.49 17.714 105.276 16.5279 106.679 16.5279C108.11 16.5279 108.869 17.7682 108.869 19.5712C108.869 21.3877 108.096 22.6484 106.679 22.6484C105.29 22.6484 104.49 21.4284 104.49 19.5712Z" fill="#3C2979"/>
<path id="Vector_7" d="M121.832 17.3344C121.574 15.4163 120.029 14.2301 117.399 14.2301C114.735 14.2301 112.98 15.4637 112.986 17.47C112.98 19.029 113.962 20.0389 115.996 20.4456L117.799 20.8048C118.707 20.9878 119.121 21.3199 119.134 21.8418C119.121 22.4586 118.45 22.8992 117.44 22.8992C116.409 22.8992 115.725 22.4586 115.549 21.6114L112.709 21.7605C112.98 23.7532 114.674 24.9801 117.433 24.9801C120.13 24.9801 122.062 23.6041 122.069 21.5504C122.062 20.0457 121.079 19.1442 119.06 18.7307L117.175 18.3511C116.206 18.141 115.847 17.8089 115.854 17.3073C115.847 16.6838 116.552 16.2771 117.446 16.2771C118.45 16.2771 119.046 16.8261 119.188 17.4971L121.832 17.3344Z" fill="#3C2979"/>
<path id="Vector_8" d="M129.991 20.3439C129.998 21.7402 129.042 22.4722 128.005 22.4722C126.914 22.4722 126.209 21.7063 126.202 20.4794V14.3657H123.315V20.9946C123.321 23.4279 124.745 24.9123 126.839 24.9123C128.405 24.9123 129.53 24.1057 129.998 22.8856H130.106V24.7767H132.878V14.3657H129.991V20.3439Z" fill="#3C2979"/>
<path id="Vector_9" d="M134.615 24.7767H137.503V18.5274C137.503 17.3751 138.235 16.6092 139.197 16.6092C140.146 16.6092 140.783 17.2599 140.783 18.2834V24.7767H143.583V18.4189C143.583 17.3412 144.2 16.6092 145.25 16.6092C146.172 16.6092 146.863 17.1853 146.863 18.3444V24.7767H149.744V17.775C149.744 15.5179 148.402 14.2301 146.463 14.2301C144.938 14.2301 143.752 15.0096 143.325 16.2025H143.217C142.885 14.996 141.82 14.2301 140.39 14.2301C138.987 14.2301 137.923 14.9757 137.489 16.2025H137.367V14.3657H134.615V24.7767Z" fill="#3C2979"/>
<path id="Vector_10" d="M17.1229 2H26.1217L22.5096 12.0943C16.152 13.2115 11.2894 19.3625 11.2894 26.783C11.2894 30.1305 12.279 33.2197 13.9489 35.7049H2L12.9236 5.17808C13.6104 3.25863 15.2735 2 17.1229 2Z" fill="#341492"/>
<path id="Vector_11" d="M26.1219 2L23.5833 9.09426L22.8184 2H26.1219Z" fill="black" fill-opacity="0.3"/>
<path id="Vector_12" d="M31.8172 2H22.8184L26.4153 12.0517C32.8994 13.0452 37.8945 19.262 37.8945 26.783C37.8945 30.1305 36.9049 33.2197 35.235 35.7049H46.9401L36.0165 5.17809C35.3297 3.25863 33.6666 2 31.8172 2Z" fill="#4C28B5"/>
<path id="Vector_13" d="M15.5183 34.7334C13.9805 32.5434 13.0635 29.7829 13.0635 26.7829C13.0635 19.6655 18.2251 13.8958 24.5922 13.8958C30.9594 13.8958 36.121 19.6655 36.121 26.7829C36.121 29.7829 35.204 32.5434 33.6662 34.7334C31.1417 32.854 27.9989 31.7395 24.5922 31.7395C21.1856 31.7395 18.0428 32.854 15.5183 34.7334Z" fill="#4C28B5"/>
</g>
</svg>
