<svg width="150" height="58" viewBox="0 0 150 58" fill="none" xmlns="http://www.w3.org/2000/svg">
<g id="Frame" style="mix-blend-mode:luminosity">
<path id="Vector" d="M30.5703 29.4046C30.5703 27.3237 31.8127 25.8741 33.7114 25.8741C35.6101 25.8741 36.8524 27.3237 36.8524 29.4046C36.8524 31.4622 35.6101 32.9351 33.7114 32.9351C31.8127 32.9351 30.5703 31.4622 30.5703 29.4046Z" fill="#062A3F"/>
<path id="Vector_2" d="M46.6273 25.7806C44.8224 25.7806 43.6035 27.1834 43.6035 29.1007C43.6035 31.0413 44.8458 32.4909 46.6273 32.4909C48.5963 32.4909 49.909 31.0179 49.909 29.1007C49.909 27.2068 48.5963 25.7806 46.6273 25.7806Z" fill="#062A3F"/>
<path id="Vector_3" d="M57.0908 29.4046C57.0908 27.3237 58.3332 25.8741 60.2319 25.8741C62.1306 25.8741 63.3729 27.3237 63.3729 29.4046C63.3729 31.4622 62.1306 32.9351 60.2319 32.9351C58.3332 32.9351 57.0908 31.4622 57.0908 29.4046Z" fill="#062A3F"/>
<path id="Vector_4" d="M76.1934 29.428C76.1934 27.3471 77.4592 25.8975 79.4516 25.8975C81.4441 25.8975 82.6395 27.3705 82.6395 29.428C82.6395 31.4855 81.4441 32.9351 79.4516 32.9351C77.4592 32.9351 76.1934 31.5089 76.1934 29.428Z" fill="#062A3F"/>
<path id="Vector_5" fill-rule="evenodd" clip-rule="evenodd" d="M75.0001 53.8654C114.828 53.8654 147.115 42.5649 147.115 28.625C147.115 14.6851 114.828 3.38464 75.0001 3.38464C35.1719 3.38464 2.88477 14.6851 2.88477 28.625C2.88477 42.5649 35.1719 53.8654 75.0001 53.8654ZM25.9368 35.2031V17.8077H23.077V35.2031H25.9368ZM27.6871 29.4046C27.6871 32.9585 30.0781 35.4837 33.7114 35.4837C37.3447 35.4837 39.7356 32.9585 39.7356 29.4046C39.7356 25.8507 37.3447 23.3256 33.7114 23.3256C30.0781 23.3256 27.6871 25.8507 27.6871 29.4046ZM46.1357 34.9693C42.8774 34.9693 40.6974 32.5377 40.6974 29.1708C40.6974 25.7806 42.9243 23.2788 46.2294 23.2788C47.9406 23.2788 49.3939 24.0037 50.0971 25.2195L50.2612 23.6529H52.7928V34.6186C52.7928 38.4297 50.4019 40.8846 46.6514 40.8846C43.4634 40.8846 41.1428 38.9207 40.7678 35.9045H43.651C43.815 37.4243 45.034 38.2894 46.8154 38.2894C48.8079 38.2894 50.0034 37.0268 50.0034 35.1329V33.169C49.2767 34.2912 47.8234 34.9693 46.1357 34.9693ZM54.208 29.4046C54.208 32.9585 56.599 35.4837 60.2323 35.4837C63.8656 35.4837 66.2565 32.9585 66.2565 29.4046C66.2565 25.8507 63.8656 23.3256 60.2323 23.3256C56.599 23.3256 54.208 25.8507 54.208 29.4046ZM71.0626 19.5847C71.0626 20.5433 70.2891 21.2915 69.3514 21.2915C68.3904 21.2915 67.6637 20.5433 67.6637 19.5847C67.6637 18.6494 68.3904 17.9012 69.3514 17.9012C70.2891 17.9012 71.0626 18.6494 71.0626 19.5847ZM70.7813 23.6529V35.2031H67.9216V23.6529H70.7813ZM73.2867 40.5573H76.0762V33.6132C76.8028 34.8056 78.3733 35.507 80.108 35.507C83.5303 35.507 85.5696 32.8884 85.5227 29.2877C85.4524 25.6637 83.3662 23.3022 80.0845 23.3022C78.3265 23.3022 76.7325 24.0738 76.0293 25.4065L75.8652 23.6529H73.2867V40.5573ZM90.8901 35.507C88.1241 35.507 86.3426 34.034 86.2489 31.7427H88.8508C88.8508 32.7481 89.5774 33.3326 90.8432 33.3326C91.8981 33.3326 92.7654 32.9118 92.7654 31.9999C92.7654 31.3452 92.2965 30.9945 91.5464 30.7841L89.5306 30.2697C87.3037 29.6852 86.4364 28.446 86.4364 26.9496C86.4364 24.7518 88.2882 23.3022 90.7729 23.3022C93.281 23.3022 94.9922 24.7518 95.086 27.0432H92.4841C92.4841 26.0378 91.7808 25.4299 90.7026 25.4299C89.6712 25.4299 89.0383 25.991 89.0383 26.786C89.0383 27.5342 89.6243 27.8381 90.4916 28.0719L92.531 28.5629C94.4297 29.0305 95.461 30.1528 95.461 31.8129C95.461 34.0574 93.6092 35.507 90.8901 35.507ZM101.393 35.507C102.963 35.507 104.463 34.7822 105.143 33.7067L105.331 35.2031H108.003V23.6529H105.143V29.7086C105.143 31.7895 104.346 32.9585 102.471 32.9585C101.018 32.9585 100.01 32.2571 100.01 29.8723V23.6529H97.15V30.8776C97.15 33.6366 98.6502 35.507 101.393 35.507ZM113.387 28.5629V35.2031H110.527V23.6529H113.152L113.293 24.9623C113.973 23.9335 115.192 23.3022 116.551 23.3022C118.473 23.3022 119.739 24.1439 120.372 25.5C120.935 24.1439 122.318 23.3022 124.076 23.3022C126.889 23.3022 128.365 24.9857 128.365 27.6511V35.2031H125.599V28.3057C125.599 26.6691 124.709 25.804 123.326 25.804C121.966 25.804 120.888 26.6925 120.888 28.5863V35.2031H118.098V28.3057C118.098 26.6691 117.208 25.804 115.848 25.804C114.489 25.804 113.387 26.6925 113.387 28.5629Z" fill="#062A3F"/>
</g>
</svg>
