<svg width="161" height="44" viewBox="0 0 161 44" fill="none" xmlns="http://www.w3.org/2000/svg">
<g id="Frame" style="mix-blend-mode:luminosity">
<path id="Vector" d="M54.1963 29H57.7153V12.44H54.1963V29Z" fill="#55AE36"/>
<path id="Vector_2" d="M64.9333 29.368C68.6133 29.368 71.0283 26.999 71.0283 22.813C71.0283 18.765 68.6823 16.235 64.9333 16.235C61.2533 16.235 58.8613 18.604 58.8613 22.813C58.8613 26.884 61.1843 29.368 64.9333 29.368ZM64.9333 26.516C63.3463 26.516 62.4723 25.205 62.4723 22.813C62.4723 20.398 63.3233 19.087 64.9333 19.087C66.5433 19.087 67.4173 20.421 67.4173 22.813C67.4173 25.228 66.5663 26.516 64.9333 26.516Z" fill="#55AE36"/>
<path id="Vector_3" d="M76.7539 29.023C78.0879 29.023 79.1919 28.471 79.9739 27.39V29.46C79.9739 31.185 79.1229 31.76 77.8579 31.76C76.6389 31.76 75.6959 31.162 75.5579 30.058H72.0389C72.4759 33.071 74.7529 34.451 77.9039 34.451C81.1469 34.451 83.4929 32.726 83.4929 29.414V16.626H79.9739V17.776C79.2149 16.764 78.1339 16.235 76.7539 16.235C73.6719 16.235 71.6709 18.535 71.6709 22.652C71.6709 26.585 73.6259 29.023 76.7539 29.023ZM77.6049 26.171C76.0869 26.171 75.2819 24.906 75.2819 22.652C75.2819 20.329 76.0869 19.087 77.6049 19.087C79.1459 19.087 79.9739 20.352 79.9739 22.629C79.9739 24.929 79.1689 26.171 77.6049 26.171Z" fill="#55AE36"/>
<path id="Vector_4" d="M90.7312 29.368C94.4112 29.368 96.8262 26.999 96.8262 22.813C96.8262 18.765 94.4802 16.235 90.7312 16.235C87.0512 16.235 84.6592 18.604 84.6592 22.813C84.6592 26.884 86.9822 29.368 90.7312 29.368ZM90.7312 26.516C89.1442 26.516 88.2702 25.205 88.2702 22.813C88.2702 20.398 89.1212 19.087 90.7312 19.087C92.3412 19.087 93.2152 20.421 93.2152 22.813C93.2152 25.228 92.3642 26.516 90.7312 26.516Z" fill="#55AE36"/>
<path id="Vector_5" d="M97.998 15.384H101.517V12.44H97.998V15.384ZM97.998 29H101.517V16.626H97.998V29Z" fill="#55AE36"/>
<path id="Vector_6" d="M106.711 34.083V27.758C107.447 28.816 108.505 29.368 109.816 29.368C112.967 29.368 115.014 26.999 115.014 22.79C115.014 18.742 113.013 16.235 109.816 16.235C108.528 16.235 107.47 16.833 106.711 17.914V16.626H103.192V34.083H106.711ZM109.08 19.087C110.575 19.087 111.403 20.398 111.403 22.79C111.403 25.205 110.598 26.516 109.08 26.516C107.539 26.516 106.711 25.182 106.711 22.79C106.711 20.398 107.516 19.087 109.08 19.087Z" fill="#55AE36"/>
<path id="Vector_7" d="M119.24 20.053C119.24 19.386 119.838 18.926 120.758 18.926C122 18.926 122.736 19.455 122.943 20.72H126.439C126.094 17.592 123.84 16.235 120.873 16.235C117.561 16.235 115.882 18.167 115.882 20.237C115.882 25.205 123.38 23.066 123.38 25.458C123.38 26.217 122.759 26.7 121.517 26.7C120.206 26.7 119.263 26.079 119.102 24.929H115.583C116.043 27.988 118.297 29.368 121.425 29.368C124.645 29.368 126.899 27.689 126.899 25.251C126.899 20.352 119.24 22.491 119.24 20.053Z" fill="#55AE36"/>
<path id="Vector_8" d="M135.569 23.733C135.569 25.32 134.695 26.516 133.338 26.516C132.096 26.516 131.498 25.734 131.498 24.147V16.626H127.979V24.86C127.979 27.942 129.704 29.368 132.05 29.368C133.545 29.368 134.764 28.724 135.569 27.344V29H139.088V16.626H135.569V23.733Z" fill="#55AE36"/>
<path id="Vector_9" d="M140.788 29H144.307V21.893C144.307 20.306 145.112 19.087 146.331 19.087C147.458 19.087 148.01 19.892 148.01 21.456V29H151.506V21.893C151.506 20.306 152.334 19.087 153.553 19.087C154.68 19.087 155.209 19.892 155.209 21.456V29H158.728V20.743C158.728 17.684 157.026 16.235 154.726 16.235C153.185 16.235 151.874 16.879 151.023 18.282C150.402 16.902 149.16 16.235 147.688 16.235C146.262 16.235 145.089 16.856 144.307 18.19V16.626H140.788V29Z" fill="#55AE36"/>
<path id="Vector_10" d="M40.8504 34.0526C44.6624 30.6486 47 26.0548 47 21C47 10.5066 36.9264 2 24.5 2C12.0736 2 2 10.5066 2 21C2 31.4934 12.0736 40 24.5 40C28.0253 40 31.3613 39.3154 34.3316 38.0949C37.8208 40.2486 42.0957 41.7967 46.8169 41.4702C44.3227 40.8362 42.1773 38.2679 40.8504 34.0526Z" fill="#B6EFA2"/>
<path id="Vector_11" d="M41 21C41 28.732 33.6127 35 24.5 35C15.3873 35 8 28.732 8 21C8 13.268 15.3873 7 24.5 7C33.6127 7 41 13.268 41 21Z" fill="#88E169"/>
<path id="Vector_12" d="M35 21C35 25.9706 30.299 30 24.5 30C18.701 30 14 25.9706 14 21C14 16.0294 18.701 12 24.5 12C30.299 12 35 16.0294 35 21Z" fill="#55AE36"/>
</g>
</svg>
