<svg width="48" height="49" viewBox="0 0 48 49" fill="none" xmlns="http://www.w3.org/2000/svg">
<g id="shipped">
<g id="Group">
<path id="Vector" d="M47.38 26.2294L43.3771 19.1661C43.2489 18.9416 42.9875 18.7128 42.729 18.7128H35.5201V10.8036C35.5201 10.1722 35.2565 9.11279 33.4909 9.11279H11.6678C10.0963 9.11279 9.12012 9.7606 9.12012 10.8036V12.4728C9.12012 12.8705 9.44238 13.1928 9.84012 13.1928C10.2378 13.1928 10.5601 12.8705 10.5601 12.4728L10.5566 10.8036C10.6147 10.7161 11.0003 10.5528 11.6678 10.5528H33.4909C33.9601 10.5528 34.0562 10.6423 34.0564 10.6423C34.0567 10.6428 34.0801 10.6817 34.0801 10.8036V33.1128C34.0801 33.1925 34.0961 33.2679 34.1202 33.3397C33.8947 33.7072 33.7175 34.1063 33.5978 34.5305C33.5872 34.538 33.5762 34.546 33.5664 34.5528H24.175C23.6209 32.5369 21.7769 31.0498 19.5875 31.0498C17.3982 31.0498 15.5542 32.5369 15.0001 34.5528H11.6652C11.2539 34.5528 10.5601 33.8839 10.5601 33.5715V27.3528C10.5601 26.9551 10.2378 26.6328 9.84012 26.6328C9.44238 26.6328 9.12012 26.9551 9.12012 27.3528V33.5715C9.12012 34.7956 10.5774 35.9928 11.6652 35.9928H14.8347C14.9308 38.5346 17.0228 40.5741 19.5875 40.5741C22.1523 40.5741 24.2443 38.5346 24.3404 35.9928H33.4248C33.5174 38.5378 35.6111 40.5812 38.1784 40.5812C40.7523 40.5812 42.8504 38.5269 42.9322 35.9719C42.9596 35.9721 42.9908 35.9757 43.018 35.9757C46.6039 35.9755 47.4107 33.6298 47.4432 33.5234C47.4641 33.4552 47.5201 33.3842 47.5201 33.313V26.5864C47.5201 26.4612 47.4421 26.3382 47.38 26.2294ZM19.5875 39.1341C17.7556 39.1341 16.2655 37.6439 16.2655 35.8123C16.2655 33.9802 17.7572 32.414 19.5875 32.4898C23.0401 32.6328 22.9096 35.7521 22.9096 35.8123C22.9096 37.6439 21.4194 39.1341 19.5875 39.1341ZM38.1784 39.1412C36.3463 39.1412 34.8559 37.6508 34.8559 35.8189C34.8559 33.9873 36.3463 32.4971 38.1784 32.4971C40.0098 32.4971 41.5 33.9873 41.5 35.8189C41.5 37.6508 40.0098 39.1412 38.1784 39.1412ZM46.0801 33.1735C45.6001 33.4953 45.1656 34.6107 42.8029 34.5279C42.2382 32.5282 40.3787 31.0571 38.2011 31.0571C37.2174 31.0571 36.28 31.3569 35.5201 31.8699V20.1528H42.3109L46.0801 26.7774V33.1735Z" fill="white"/>
<path id="Vector_2" d="M13.2002 15.5928C13.2002 15.1951 12.878 14.8728 12.4802 14.8728H0.960234C0.562502 14.8728 0.240234 15.1951 0.240234 15.5928C0.240234 15.9905 0.562502 16.3128 0.960234 16.3128H12.4802C12.878 16.3128 13.2002 15.9905 13.2002 15.5928Z" fill="white"/>
<path id="Vector_3" d="M13.2002 19.9129C13.2002 19.5151 12.8779 19.1929 12.4802 19.1929H2.88016C2.48242 19.1929 2.16016 19.5151 2.16016 19.9129C2.16016 20.3106 2.48242 20.6329 2.88016 20.6329H12.4802C12.8779 20.6329 13.2002 20.3106 13.2002 19.9129Z" fill="white"/>
<path id="Vector_4" d="M13.2005 24.2327C13.2005 23.835 12.8783 23.5127 12.4805 23.5127H5.28055C4.88281 23.5127 4.56055 23.835 4.56055 24.2327C4.56055 24.6304 4.88281 24.9527 5.28055 24.9527H12.4805C12.8783 24.9527 13.2005 24.6304 13.2005 24.2327Z" fill="white"/>
</g>
</g>
</svg>
