<svg width="48" height="49" viewBox="0 0 48 49" fill="none" xmlns="http://www.w3.org/2000/svg">
<g id="support" clip-path="url(#clip0_1_301)">
<g id="Group">
<path id="Vector" d="M41.4705 19.0275C41.0163 9.03841 33.3499 1.02515 24.0166 1.02515C14.7035 1.02515 7.0347 9.04499 6.57582 19.0265C4.18591 19.4503 2.40137 22.0177 2.40137 25.1205V33.1809C2.40137 36.5805 4.54096 39.353 7.25901 39.353H11.4663C11.864 39.353 12.0014 39.0239 12.0014 38.6261V19.6781C12.0014 19.2804 11.864 19.193 11.4663 19.193H8.00877C8.49439 9.59295 15.5627 2.69996 24.0672 2.69996C32.5903 2.69996 39.6475 9.59295 40.1289 19.193H36.6682C36.2704 19.193 36.0014 19.2804 36.0014 19.6781V38.6261C36.0014 39.0239 36.2704 39.353 36.6682 39.353H39.9637C38.9163 43.193 37.0476 44.159 35.6582 44.7028L35.4271 44.7923C34.466 45.1765 30.4806 44.9843 28.0335 44.7638C27.861 44.227 27.5036 43.7175 26.9746 43.2752C26.2012 42.6288 25.1331 42.19 23.9674 42.0408C23.6798 42.0038 23.3896 41.985 23.1051 41.985C20.879 41.985 19.1843 43.0746 18.9841 44.6348C18.7556 46.4186 20.5858 48.0736 23.1508 48.4026C23.4384 48.4397 23.7285 48.4582 24.0133 48.4582C26.0425 48.4582 27.626 47.5514 28.0424 46.2099C29.0027 46.2944 31.0396 46.4522 32.8628 46.4522C34.1618 46.4522 35.351 46.372 35.9618 46.1278L36.1832 46.0404C37.7172 45.4397 40.143 44.4359 41.3496 39.3C43.7967 38.9407 45.6014 36.3375 45.6014 33.1851V25.1252C45.6014 22.0223 43.8588 19.4545 41.4705 19.0275ZM10.5614 37.913H7.25901C5.33503 37.913 3.84137 35.7865 3.84137 33.1809V25.1205C3.84137 22.5166 5.33503 20.633 7.25901 20.633H10.5614V37.913ZM26.7056 45.6255C26.6039 46.4196 25.4465 47.0182 24.0133 47.0182C23.7897 47.0182 23.5612 47.0034 23.3341 46.9743C21.48 46.7365 20.3062 45.6469 20.4124 44.8179C20.5144 44.0238 21.6719 43.425 23.1051 43.425C23.3287 43.425 23.557 43.4398 23.7841 43.4688C24.6677 43.582 25.4941 43.9141 26.0512 44.3798C26.3259 44.6093 26.7761 45.0764 26.7056 45.6255ZM44.1614 33.1851C44.1614 35.7073 42.791 37.7679 40.9485 37.894C40.9383 37.8914 40.9797 37.8886 40.9689 37.8881C40.8014 37.8822 37.4414 37.913 37.4414 37.913V20.633C37.4414 20.633 40.9999 20.618 41.0714 20.5931C42.8714 20.703 44.1614 22.6277 44.1614 25.1252V33.1851Z" fill="white"/>
</g>
</g>
<defs>
<clipPath id="clip0_1_301">
<rect width="48" height="48" fill="white" transform="translate(0.000976562 0.952881)"/>
</clipPath>
</defs>
</svg>
