<svg width="21" height="16" viewBox="0 0 21 16" fill="none" xmlns="http://www.w3.org/2000/svg">
<path d="M19.8125 3.71875C20.8438 5.40625 19.9062 7.71875 17.9688 7.96875C17.8125 8 17.6875 8 17.5312 8C16.5938 8 15.7812 7.59375 15.2188 6.96875C14.6562 7.59375 13.8438 8 12.9062 8C12 8 11.1562 7.59375 10.5938 6.96875C10.0312 7.59375 9.21875 8 8.3125 8C7.375 8 6.5625 7.59375 6 6.96875C5.4375 7.59375 4.625 8 3.6875 8C3.53125 8 3.40625 8 3.25 7.96875C1.3125 7.71875 0.375 5.40625 1.4375 3.71875L3.4375 0.46875C3.625 0.1875 3.96875 0 4.3125 0H16.9375C17.2812 0 17.5938 0.1875 17.7812 0.46875L19.8125 3.71875ZM17.5312 9C17.7188 9 17.9062 9 18.0938 8.96875C18.2812 8.96875 18.4375 8.90625 18.625 8.875V15C18.625 15.5625 18.1562 16 17.625 16H3.625C3.0625 16 2.625 15.5625 2.625 15V8.875C2.78125 8.90625 2.9375 8.9375 3.125 8.96875C3.3125 9 3.5 9 3.6875 9C4 9 4.3125 8.96875 4.625 8.90625V12H16.625V8.90625C16.9062 8.96875 17.2188 9 17.5312 9Z" fill="#062A3F"/>
</svg>
