<svg width="13" height="13" viewBox="0 0 13 13" fill="none" xmlns="http://www.w3.org/2000/svg">
<path d="M8.57812 6.25L12.0938 9.76562C12.3047 9.97656 12.4102 10.2344 12.4102 10.5391C12.4102 10.8438 12.3047 11.1133 12.0938 11.3477L11.3203 12.1211C11.0859 12.332 10.8164 12.4375 10.5117 12.4375C10.207 12.4375 9.94922 12.332 9.73828 12.1211L6.22266 8.60547L2.70703 12.1211C2.49609 12.332 2.23828 12.4375 1.93359 12.4375C1.62891 12.4375 1.35938 12.332 1.125 12.1211L0.351562 11.3477C0.140625 11.1133 0.0351562 10.8438 0.0351562 10.5391C0.0351562 10.2344 0.140625 9.97656 0.351562 9.76562L3.86719 6.25L0.351562 2.73438C0.140625 2.52344 0.0351562 2.26562 0.0351562 1.96094C0.0351562 1.65625 0.140625 1.38672 0.351562 1.15234L1.125 0.378906C1.35938 0.167969 1.62891 0.0625 1.93359 0.0625C2.23828 0.0625 2.49609 0.167969 2.70703 0.378906L6.22266 3.89453L9.73828 0.378906C9.94922 0.167969 10.207 0.0625 10.5117 0.0625C10.8164 0.0625 11.0859 0.167969 11.3203 0.378906L12.0938 1.15234C12.3047 1.38672 12.4102 1.65625 12.4102 1.96094C12.4102 2.26562 12.3047 2.52344 12.0938 2.73438L8.57812 6.25Z" fill="#82929B"/>
</svg>
