<svg width="201" height="34" viewBox="0 0 201 34" fill="none" xmlns="http://www.w3.org/2000/svg">
<g id="pharmabee-logo" clip-path="url(#clip0_1_1528)">
<path id="Vector" d="M15.7023 0.975322C16.7476 0.371833 18.0354 0.371833 19.0807 0.975322L30.3311 7.47074C31.3764 8.07426 32.0203 9.18953 32.0203 10.3965V23.3874C32.0203 24.5944 31.3764 25.7097 30.3311 26.3132L19.0807 32.8086C18.0354 33.4121 16.7476 33.4121 15.7023 32.8086L4.45187 26.3132C3.40661 25.7097 2.7627 24.5944 2.7627 23.3874V10.3965C2.7627 9.18953 3.40661 8.07426 4.45187 7.47074L15.7023 0.975322Z" fill="#19BE6F"/>
<path id="Vector_2" d="M17.4896 25.1945C16.149 25.1945 15.4788 24.5134 15.4788 23.1513V18.8053H11.2301C9.93283 18.8053 9.28418 18.1675 9.28418 16.8918C9.28418 15.6161 9.93283 14.9783 11.2301 14.9783H15.4788V10.7945C15.4788 9.45396 16.149 8.78369 17.4896 8.78369C18.8301 8.78369 19.5004 9.45396 19.5004 10.7945V14.9783H23.749C25.0463 14.9783 25.695 15.6161 25.695 16.8918C25.695 18.1675 25.0463 18.8053 23.749 18.8053H19.5004V23.1513C19.5004 24.5134 18.8301 25.1945 17.4896 25.1945Z" fill="white"/>
<path id="Vector_3" d="M42.9268 4.06481H50.6457C51.7484 4.06481 52.8078 4.17292 53.8241 4.38914C54.8619 4.60535 55.77 4.97292 56.5484 5.49184C57.3268 5.98914 57.943 6.67022 58.397 7.53508C58.8727 8.37833 59.1105 9.43779 59.1105 10.7135C59.1105 12.1621 58.8619 13.3297 58.3646 14.2162C57.8673 15.1027 57.197 15.7945 56.3538 16.2918C55.5105 16.7675 54.5268 17.0918 53.4024 17.2648C52.2997 17.4378 51.143 17.5243 49.9322 17.5243H47.0132V27.027H42.9268V4.06481ZM49.4781 14.0216C50.0619 14.0216 50.6673 13.9999 51.2943 13.9567C51.9214 13.9135 52.4943 13.7837 53.0132 13.5675C53.5538 13.3513 53.9862 13.027 54.3105 12.5945C54.6565 12.1621 54.8295 11.5567 54.8295 10.7783C54.8295 10.0648 54.6781 9.50265 54.3754 9.09184C54.0727 8.65941 53.6835 8.33508 53.2078 8.11887C52.7322 7.88103 52.2024 7.72968 51.6187 7.66481C51.0349 7.59995 50.4727 7.56752 49.9322 7.56752H47.0132V14.0216H49.4781ZM64.6673 13.6324H64.7322C65.0349 12.9837 65.5646 12.3999 66.3214 11.881C67.0997 11.3405 68.0943 11.0702 69.3051 11.0702C70.343 11.0702 71.2187 11.2432 71.9322 11.5891C72.6673 11.9351 73.2619 12.3891 73.716 12.9513C74.17 13.5135 74.4943 14.1621 74.6889 14.8972C74.8835 15.6324 74.9808 16.3999 74.9808 17.1999V27.027H71.0889V19.1459C71.0889 18.7135 71.0673 18.2378 71.0241 17.7189C70.9808 17.1783 70.8619 16.681 70.6673 16.227C70.4943 15.7513 70.2132 15.3621 69.8241 15.0594C69.4349 14.7351 68.9051 14.5729 68.2349 14.5729C67.5862 14.5729 67.0349 14.681 66.5808 14.8972C66.1484 15.1135 65.7808 15.4054 65.4781 15.7729C65.197 16.1405 64.9916 16.5621 64.8619 17.0378C64.7322 17.5135 64.6673 18.0108 64.6673 18.5297V27.027H60.7754V2.50806H64.6673V13.6324ZM87.5068 24.8864H87.4095C86.8474 25.7729 86.1339 26.4216 85.269 26.8324C84.4041 27.2216 83.4528 27.4162 82.4149 27.4162C81.7014 27.4162 80.9987 27.3189 80.3068 27.1243C79.6366 26.9297 79.0312 26.6378 78.4906 26.2486C77.9717 25.8594 77.5501 25.3729 77.2257 24.7891C76.9014 24.2054 76.7393 23.5243 76.7393 22.7459C76.7393 21.9027 76.8906 21.1891 77.1933 20.6054C77.496 19.9999 77.896 19.5027 78.3933 19.1135C78.9122 18.7027 79.5068 18.3783 80.1771 18.1405C80.8474 17.9027 81.5393 17.7297 82.2528 17.6216C82.9879 17.4918 83.723 17.4162 84.4582 17.3945C85.1933 17.3513 85.8852 17.3297 86.5339 17.3297H87.5068V16.9081C87.5068 15.9351 87.1717 15.2108 86.5014 14.7351C85.8312 14.2378 84.9771 13.9891 83.9393 13.9891C83.1176 13.9891 82.3501 14.1405 81.6366 14.4432C80.923 14.7243 80.3068 15.1135 79.7879 15.6108L77.7447 13.5675C78.6095 12.681 79.6149 12.0432 80.7609 11.654C81.9285 11.2648 83.1285 11.0702 84.3609 11.0702C85.4636 11.0702 86.3933 11.1999 87.1501 11.4594C87.9068 11.6972 88.5339 12.0108 89.0312 12.3999C89.5285 12.7891 89.9068 13.2432 90.1663 13.7621C90.4474 14.2594 90.642 14.7675 90.7501 15.2864C90.8798 15.8054 90.9555 16.3135 90.9771 16.8108C90.9987 17.2864 91.0095 17.7081 91.0095 18.0756V27.027H87.5068V24.8864ZM87.2798 20.054H86.469C85.9285 20.054 85.3231 20.0756 84.6528 20.1189C83.9825 20.1621 83.3447 20.2702 82.7393 20.4432C82.1555 20.5945 81.6582 20.8324 81.2474 21.1567C80.8366 21.4594 80.6312 21.8918 80.6312 22.454C80.6312 22.8216 80.7068 23.1351 80.8582 23.3945C81.0312 23.6324 81.2474 23.8378 81.5068 24.0108C81.7663 24.1837 82.0582 24.3135 82.3825 24.4C82.7068 24.4648 83.0312 24.4972 83.3555 24.4972C84.696 24.4972 85.6798 24.1837 86.3068 23.5567C86.9555 22.9081 87.2798 22.0324 87.2798 20.9297V20.054ZM93.5751 11.4594H97.467V13.9243H97.5318C97.9643 13.0162 98.5805 12.3135 99.3805 11.8162C100.18 11.3189 101.099 11.0702 102.137 11.0702C102.375 11.0702 102.602 11.0918 102.818 11.1351C103.056 11.1783 103.294 11.2324 103.532 11.2972V15.0594C103.208 14.9729 102.883 14.9081 102.559 14.8648C102.256 14.7999 101.953 14.7675 101.651 14.7675C100.743 14.7675 100.008 14.9405 99.4454 15.2864C98.9048 15.6108 98.4832 15.9891 98.1805 16.4216C97.8994 16.854 97.7048 17.2864 97.5967 17.7189C97.5102 18.1513 97.467 18.4756 97.467 18.6918V27.027H93.5751V11.4594ZM104.967 11.4594H108.664V13.8918H108.729C109.075 13.1567 109.626 12.5081 110.383 11.9459C111.162 11.3621 112.199 11.0702 113.497 11.0702C115.94 11.0702 117.562 12.0324 118.362 13.9567C118.924 12.9621 119.626 12.2378 120.47 11.7837C121.313 11.3081 122.318 11.0702 123.486 11.0702C124.524 11.0702 125.399 11.2432 126.113 11.5891C126.826 11.9351 127.399 12.4108 127.832 13.0162C128.286 13.6216 128.61 14.3351 128.805 15.1567C128.999 15.9567 129.097 16.8216 129.097 17.7513V27.027H125.205V18.2054C125.205 17.7297 125.162 17.2756 125.075 16.8432C124.989 16.3891 124.837 15.9999 124.621 15.6756C124.405 15.3297 124.113 15.0594 123.745 14.8648C123.378 14.6702 122.902 14.5729 122.318 14.5729C121.713 14.5729 121.194 14.6918 120.762 14.9297C120.351 15.1459 120.005 15.4486 119.724 15.8378C119.464 16.2054 119.27 16.6378 119.14 17.1351C119.032 17.6108 118.978 18.0972 118.978 18.5945V27.027H115.086V17.7513C115.086 16.7783 114.88 16.0108 114.47 15.4486C114.059 14.8648 113.378 14.5729 112.426 14.5729C111.778 14.5729 111.226 14.681 110.772 14.8972C110.34 15.1135 109.972 15.4054 109.67 15.7729C109.389 16.1405 109.183 16.5621 109.053 17.0378C108.924 17.5135 108.859 18.0108 108.859 18.5297V27.027H104.967V11.4594ZM141.457 24.8864H141.36C140.798 25.7729 140.084 26.4216 139.219 26.8324C138.354 27.2216 137.403 27.4162 136.365 27.4162C135.652 27.4162 134.949 27.3189 134.257 27.1243C133.587 26.9297 132.981 26.6378 132.441 26.2486C131.922 25.8594 131.5 25.3729 131.176 24.7891C130.852 24.2054 130.69 23.5243 130.69 22.7459C130.69 21.9027 130.841 21.1891 131.144 20.6054C131.446 19.9999 131.846 19.5027 132.344 19.1135C132.863 18.7027 133.457 18.3783 134.127 18.1405C134.798 17.9027 135.49 17.7297 136.203 17.6216C136.938 17.4918 137.673 17.4162 138.409 17.3945C139.144 17.3513 139.836 17.3297 140.484 17.3297H141.457V16.9081C141.457 15.9351 141.122 15.2108 140.452 14.7351C139.782 14.2378 138.927 13.9891 137.89 13.9891C137.068 13.9891 136.3 14.1405 135.587 14.4432C134.873 14.7243 134.257 15.1135 133.738 15.6108L131.695 13.5675C132.56 12.681 133.565 12.0432 134.711 11.654C135.879 11.2648 137.079 11.0702 138.311 11.0702C139.414 11.0702 140.344 11.1999 141.1 11.4594C141.857 11.6972 142.484 12.0108 142.982 12.3999C143.479 12.7891 143.857 13.2432 144.117 13.7621C144.398 14.2594 144.592 14.7675 144.7 15.2864C144.83 15.8054 144.906 16.3135 144.927 16.8108C144.949 17.2864 144.96 17.7081 144.96 18.0756V27.027H141.457V24.8864ZM141.23 20.054H140.419C139.879 20.054 139.273 20.0756 138.603 20.1189C137.933 20.1621 137.295 20.2702 136.69 20.4432C136.106 20.5945 135.609 20.8324 135.198 21.1567C134.787 21.4594 134.581 21.8918 134.581 22.454C134.581 22.8216 134.657 23.1351 134.809 23.3945C134.981 23.6324 135.198 23.8378 135.457 24.0108C135.717 24.1837 136.009 24.3135 136.333 24.4C136.657 24.4648 136.982 24.4972 137.306 24.4972C138.646 24.4972 139.63 24.1837 140.257 23.5567C140.906 22.9081 141.23 22.0324 141.23 20.9297V20.054ZM147.883 4.06481H156.834C157.699 4.06481 158.553 4.17292 159.396 4.38914C160.239 4.58373 160.985 4.91887 161.634 5.39454C162.304 5.8486 162.845 6.44319 163.255 7.17833C163.666 7.91346 163.872 8.79995 163.872 9.83779C163.872 11.1351 163.504 12.2054 162.769 13.0486C162.034 13.8918 161.072 14.4972 159.883 14.8648V14.9297C160.596 15.0162 161.255 15.2216 161.861 15.5459C162.488 15.8486 163.018 16.2486 163.45 16.7459C163.883 17.2216 164.218 17.7837 164.455 18.4324C164.715 19.0594 164.845 19.7405 164.845 20.4756C164.845 21.7297 164.596 22.7783 164.099 23.6216C163.601 24.4432 162.942 25.1135 162.12 25.6324C161.32 26.1297 160.391 26.4864 159.331 26.7027C158.293 26.9189 157.234 27.027 156.153 27.027H147.883V4.06481ZM151.969 13.4054H155.699C157.061 13.4054 158.077 13.1459 158.747 12.627C159.439 12.0864 159.785 11.3837 159.785 10.5189C159.785 9.52427 159.428 8.78914 158.715 8.31346C158.023 7.81616 156.899 7.56752 155.342 7.56752H151.969V13.4054ZM151.969 23.5243H155.731C156.25 23.5243 156.801 23.4918 157.385 23.427C157.991 23.3621 158.542 23.2108 159.039 22.9729C159.537 22.7351 159.947 22.4 160.272 21.9675C160.596 21.5135 160.758 20.9081 160.758 20.1513C160.758 18.9405 160.358 18.0972 159.558 17.6216C158.78 17.1459 157.558 16.9081 155.893 16.9081H151.969V23.5243ZM170.048 20.6054C170.178 21.7729 170.632 22.681 171.41 23.3297C172.189 23.9783 173.129 24.3026 174.232 24.3026C175.205 24.3026 176.016 24.1081 176.664 23.7189C177.335 23.3081 177.918 22.7999 178.416 22.1945L181.205 24.3026C180.297 25.427 179.281 26.227 178.156 26.7027C177.032 27.1783 175.853 27.4162 174.621 27.4162C173.453 27.4162 172.351 27.2216 171.313 26.8324C170.275 26.4432 169.378 25.8918 168.621 25.1783C167.864 24.4648 167.259 23.6108 166.805 22.6162C166.372 21.5999 166.156 20.4756 166.156 19.2432C166.156 18.0108 166.372 16.8972 166.805 15.9027C167.259 14.8864 167.864 14.0216 168.621 13.3081C169.378 12.5945 170.275 12.0432 171.313 11.654C172.351 11.2648 173.453 11.0702 174.621 11.0702C175.702 11.0702 176.686 11.2648 177.572 11.654C178.481 12.0216 179.248 12.5621 179.875 13.2756C180.524 13.9891 181.021 14.8756 181.367 15.9351C181.735 16.9729 181.918 18.1729 181.918 19.5351V20.6054H170.048ZM178.026 17.6864C178.005 16.5405 177.648 15.6432 176.956 14.9945C176.264 14.3243 175.302 13.9891 174.07 13.9891C172.902 13.9891 171.972 14.3243 171.281 14.9945C170.61 15.6648 170.199 16.5621 170.048 17.6864H178.026ZM187.05 20.6054C187.179 21.7729 187.634 22.681 188.412 23.3297C189.19 23.9783 190.131 24.3026 191.234 24.3026C192.207 24.3026 193.017 24.1081 193.666 23.7189C194.336 23.3081 194.92 22.7999 195.417 22.1945L198.207 24.3026C197.298 25.427 196.282 26.227 195.158 26.7027C194.034 27.1783 192.855 27.4162 191.623 27.4162C190.455 27.4162 189.352 27.2216 188.315 26.8324C187.277 26.4432 186.379 25.8918 185.623 25.1783C184.866 24.4648 184.261 23.6108 183.807 22.6162C183.374 21.5999 183.158 20.4756 183.158 19.2432C183.158 18.0108 183.374 16.8972 183.807 15.9027C184.261 14.8864 184.866 14.0216 185.623 13.3081C186.379 12.5945 187.277 12.0432 188.315 11.654C189.352 11.2648 190.455 11.0702 191.623 11.0702C192.704 11.0702 193.688 11.2648 194.574 11.654C195.482 12.0216 196.25 12.5621 196.877 13.2756C197.525 13.9891 198.023 14.8756 198.369 15.9351C198.736 16.9729 198.92 18.1729 198.92 19.5351V20.6054H187.05ZM195.028 17.6864C195.007 16.5405 194.65 15.6432 193.958 14.9945C193.266 14.3243 192.304 13.9891 191.071 13.9891C189.904 13.9891 188.974 14.3243 188.282 14.9945C187.612 15.6648 187.201 16.5621 187.05 17.6864H195.028Z" fill="#062A3F"/>
</g>
<defs>
<clipPath id="clip0_1_1528">
<rect width="200" height="33.7838" fill="white" transform="translate(0.5)"/>
</clipPath>
</defs>
</svg>
