<svg width="16" height="16" viewBox="0 0 16 16" fill="none" xmlns="http://www.w3.org/2000/svg">
<path d="M7.77637 0.25C3.49512 0.25 0.0263672 3.71875 0.0263672 8C0.0263672 12.2812 3.49512 15.75 7.77637 15.75C12.0576 15.75 15.5264 12.2812 15.5264 8C15.5264 3.71875 12.0576 0.25 7.77637 0.25ZM10.6514 10.0312L10.0264 10.8125C9.93262 10.9375 9.80762 11.0312 9.62012 11.0312C9.52637 11.0312 9.40137 10.9688 9.33887 10.9062L7.24512 9.34375C6.93262 9.125 6.77637 8.78125 6.77637 8.375V3.5C6.77637 3.25 6.99512 3 7.27637 3H8.27637C8.52637 3 8.77637 3.25 8.77637 3.5V8L10.5889 9.34375C10.6826 9.4375 10.7764 9.5625 10.7764 9.71875C10.7764 9.84375 10.7139 9.96875 10.6514 10.0312Z" fill="white"/>
</svg>
