<svg width="17" height="16" viewBox="0 0 17 16" fill="none" xmlns="http://www.w3.org/2000/svg">
<path d="M6.77637 6.5V10C6.77637 10.5625 6.30762 11 5.77637 11H5.27637C4.15137 11 3.27637 10.125 3.27637 9V7.5C3.27637 6.40625 4.15137 5.5 5.27637 5.5H5.77637C6.30762 5.5 6.77637 5.96875 6.77637 6.5ZM12.2764 11H11.7764C11.2139 11 10.7764 10.5625 10.7764 10V6.5C10.7764 5.96875 11.2139 5.5 11.7764 5.5H12.2764C13.3701 5.5 14.2764 6.40625 14.2764 7.5V9C14.2764 10.125 13.3701 11 12.2764 11ZM8.77637 0C13.2139 0 16.6201 3.71875 16.7764 8V13.1875C16.7764 14.75 15.4951 16 13.9326 16H8.27637C7.43262 16 6.77637 15.3438 6.77637 14.5C6.77637 13.6875 7.43262 13 8.27637 13H9.27637C10.0889 13 10.7764 13.6875 10.7764 14.5H13.9326C14.6826 14.5 15.2764 13.9375 15.2764 13.1875C15.2764 13.1875 15.2451 8.09375 15.2451 8H15.2764C15.2764 4.4375 12.3389 1.5 8.77637 1.5C5.18262 1.5 2.27637 4.4375 2.27637 8V8.5C2.27637 8.78125 2.02637 9 1.77637 9H1.27637C0.995117 9 0.776367 8.78125 0.776367 8.5V8C0.901367 3.71875 4.30762 0 8.77637 0Z" fill="white"/>
</svg>
