<svg width="200" height="34" viewBox="0 0 200 34" fill="none" xmlns="http://www.w3.org/2000/svg">
<g id="pharmabee-logo" clip-path="url(#clip0_20_913)">
<path id="Vector" d="M15.2023 0.975322C16.2476 0.371833 17.5354 0.371833 18.5807 0.975322L29.8311 7.47074C30.8764 8.07426 31.5203 9.18953 31.5203 10.3965V23.3874C31.5203 24.5944 30.8764 25.7097 29.8311 26.3132L18.5807 32.8086C17.5354 33.4121 16.2476 33.4121 15.2023 32.8086L3.95187 26.3132C2.90661 25.7097 2.2627 24.5944 2.2627 23.3874V10.3965C2.2627 9.18953 2.90661 8.07426 3.95187 7.47074L15.2023 0.975322Z" fill="#19BE6F"/>
<path id="Vector_2" d="M16.9896 25.1945C15.649 25.1945 14.9788 24.5134 14.9788 23.1513V18.8053H10.7301C9.43283 18.8053 8.78418 18.1675 8.78418 16.8918C8.78418 15.6161 9.43283 14.9783 10.7301 14.9783H14.9788V10.7945C14.9788 9.45396 15.649 8.78369 16.9896 8.78369C18.3301 8.78369 19.0004 9.45396 19.0004 10.7945V14.9783H23.249C24.5463 14.9783 25.195 15.6161 25.195 16.8918C25.195 18.1675 24.5463 18.8053 23.249 18.8053H19.0004V23.1513C19.0004 24.5134 18.3301 25.1945 16.9896 25.1945Z" fill="white"/>
<path id="Vector_3" d="M42.4268 4.06481H50.1457C51.2484 4.06481 52.3078 4.17292 53.3241 4.38914C54.3619 4.60535 55.27 4.97292 56.0484 5.49184C56.8268 5.98914 57.443 6.67022 57.897 7.53508C58.3727 8.37833 58.6105 9.43779 58.6105 10.7135C58.6105 12.1621 58.3619 13.3297 57.8646 14.2162C57.3673 15.1027 56.697 15.7945 55.8538 16.2918C55.0105 16.7675 54.0268 17.0918 52.9024 17.2648C51.7997 17.4378 50.643 17.5243 49.4322 17.5243H46.5132V27.027H42.4268V4.06481ZM48.9781 14.0216C49.5619 14.0216 50.1673 13.9999 50.7943 13.9567C51.4214 13.9135 51.9943 13.7837 52.5132 13.5675C53.0538 13.3513 53.4862 13.027 53.8105 12.5945C54.1565 12.1621 54.3295 11.5567 54.3295 10.7783C54.3295 10.0648 54.1781 9.50265 53.8754 9.09184C53.5727 8.65941 53.1835 8.33508 52.7078 8.11887C52.2322 7.88103 51.7024 7.72968 51.1187 7.66481C50.5349 7.59995 49.9727 7.56752 49.4322 7.56752H46.5132V14.0216H48.9781ZM64.1673 13.6324H64.2322C64.5349 12.9837 65.0646 12.3999 65.8214 11.881C66.5997 11.3405 67.5943 11.0702 68.8051 11.0702C69.843 11.0702 70.7187 11.2432 71.4322 11.5891C72.1673 11.9351 72.7619 12.3891 73.216 12.9513C73.67 13.5135 73.9943 14.1621 74.1889 14.8972C74.3835 15.6324 74.4808 16.3999 74.4808 17.1999V27.027H70.5889V19.1459C70.5889 18.7135 70.5673 18.2378 70.5241 17.7189C70.4808 17.1783 70.3619 16.681 70.1673 16.227C69.9943 15.7513 69.7132 15.3621 69.3241 15.0594C68.9349 14.7351 68.4051 14.5729 67.7349 14.5729C67.0862 14.5729 66.5349 14.681 66.0808 14.8972C65.6484 15.1135 65.2808 15.4054 64.9781 15.7729C64.697 16.1405 64.4916 16.5621 64.3619 17.0378C64.2322 17.5135 64.1673 18.0108 64.1673 18.5297V27.027H60.2754V2.50806H64.1673V13.6324ZM87.0068 24.8864H86.9095C86.3474 25.7729 85.6339 26.4216 84.769 26.8324C83.9041 27.2216 82.9528 27.4162 81.9149 27.4162C81.2014 27.4162 80.4987 27.3189 79.8068 27.1243C79.1366 26.9297 78.5312 26.6378 77.9906 26.2486C77.4717 25.8594 77.0501 25.3729 76.7257 24.7891C76.4014 24.2054 76.2393 23.5243 76.2393 22.7459C76.2393 21.9027 76.3906 21.1891 76.6933 20.6054C76.996 19.9999 77.396 19.5027 77.8933 19.1135C78.4122 18.7027 79.0068 18.3783 79.6771 18.1405C80.3474 17.9027 81.0393 17.7297 81.7528 17.6216C82.4879 17.4918 83.223 17.4162 83.9582 17.3945C84.6933 17.3513 85.3852 17.3297 86.0339 17.3297H87.0068V16.9081C87.0068 15.9351 86.6717 15.2108 86.0014 14.7351C85.3312 14.2378 84.4771 13.9891 83.4393 13.9891C82.6176 13.9891 81.8501 14.1405 81.1366 14.4432C80.423 14.7243 79.8068 15.1135 79.2879 15.6108L77.2447 13.5675C78.1095 12.681 79.1149 12.0432 80.2609 11.654C81.4285 11.2648 82.6285 11.0702 83.8609 11.0702C84.9636 11.0702 85.8933 11.1999 86.6501 11.4594C87.4068 11.6972 88.0339 12.0108 88.5312 12.3999C89.0285 12.7891 89.4068 13.2432 89.6663 13.7621C89.9474 14.2594 90.142 14.7675 90.2501 15.2864C90.3798 15.8054 90.4555 16.3135 90.4771 16.8108C90.4987 17.2864 90.5095 17.7081 90.5095 18.0756V27.027H87.0068V24.8864ZM86.7798 20.054H85.969C85.4285 20.054 84.8231 20.0756 84.1528 20.1189C83.4825 20.1621 82.8447 20.2702 82.2393 20.4432C81.6555 20.5945 81.1582 20.8324 80.7474 21.1567C80.3366 21.4594 80.1312 21.8918 80.1312 22.454C80.1312 22.8216 80.2068 23.1351 80.3582 23.3945C80.5312 23.6324 80.7474 23.8378 81.0068 24.0108C81.2663 24.1837 81.5582 24.3135 81.8825 24.4C82.2068 24.4648 82.5312 24.4972 82.8555 24.4972C84.196 24.4972 85.1798 24.1837 85.8068 23.5567C86.4555 22.9081 86.7798 22.0324 86.7798 20.9297V20.054ZM93.0751 11.4594H96.967V13.9243H97.0318C97.4643 13.0162 98.0805 12.3135 98.8805 11.8162C99.6805 11.3189 100.599 11.0702 101.637 11.0702C101.875 11.0702 102.102 11.0918 102.318 11.1351C102.556 11.1783 102.794 11.2324 103.032 11.2972V15.0594C102.708 14.9729 102.383 14.9081 102.059 14.8648C101.756 14.7999 101.453 14.7675 101.151 14.7675C100.243 14.7675 99.5075 14.9405 98.9454 15.2864C98.4048 15.6108 97.9832 15.9891 97.6805 16.4216C97.3994 16.854 97.2048 17.2864 97.0967 17.7189C97.0102 18.1513 96.967 18.4756 96.967 18.6918V27.027H93.0751V11.4594ZM104.467 11.4594H108.164V13.8918H108.229C108.575 13.1567 109.126 12.5081 109.883 11.9459C110.662 11.3621 111.699 11.0702 112.997 11.0702C115.44 11.0702 117.062 12.0324 117.862 13.9567C118.424 12.9621 119.126 12.2378 119.97 11.7837C120.813 11.3081 121.818 11.0702 122.986 11.0702C124.024 11.0702 124.899 11.2432 125.613 11.5891C126.326 11.9351 126.899 12.4108 127.332 13.0162C127.786 13.6216 128.11 14.3351 128.305 15.1567C128.499 15.9567 128.597 16.8216 128.597 17.7513V27.027H124.705V18.2054C124.705 17.7297 124.662 17.2756 124.575 16.8432C124.489 16.3891 124.337 15.9999 124.121 15.6756C123.905 15.3297 123.613 15.0594 123.245 14.8648C122.878 14.6702 122.402 14.5729 121.818 14.5729C121.213 14.5729 120.694 14.6918 120.262 14.9297C119.851 15.1459 119.505 15.4486 119.224 15.8378C118.964 16.2054 118.77 16.6378 118.64 17.1351C118.532 17.6108 118.478 18.0972 118.478 18.5945V27.027H114.586V17.7513C114.586 16.7783 114.38 16.0108 113.97 15.4486C113.559 14.8648 112.878 14.5729 111.926 14.5729C111.278 14.5729 110.726 14.681 110.272 14.8972C109.84 15.1135 109.472 15.4054 109.17 15.7729C108.889 16.1405 108.683 16.5621 108.553 17.0378C108.424 17.5135 108.359 18.0108 108.359 18.5297V27.027H104.467V11.4594ZM140.957 24.8864H140.86C140.298 25.7729 139.584 26.4216 138.719 26.8324C137.854 27.2216 136.903 27.4162 135.865 27.4162C135.152 27.4162 134.449 27.3189 133.757 27.1243C133.087 26.9297 132.481 26.6378 131.941 26.2486C131.422 25.8594 131 25.3729 130.676 24.7891C130.352 24.2054 130.19 23.5243 130.19 22.7459C130.19 21.9027 130.341 21.1891 130.644 20.6054C130.946 19.9999 131.346 19.5027 131.844 19.1135C132.363 18.7027 132.957 18.3783 133.627 18.1405C134.298 17.9027 134.99 17.7297 135.703 17.6216C136.438 17.4918 137.173 17.4162 137.909 17.3945C138.644 17.3513 139.336 17.3297 139.984 17.3297H140.957V16.9081C140.957 15.9351 140.622 15.2108 139.952 14.7351C139.282 14.2378 138.427 13.9891 137.39 13.9891C136.568 13.9891 135.8 14.1405 135.087 14.4432C134.373 14.7243 133.757 15.1135 133.238 15.6108L131.195 13.5675C132.06 12.681 133.065 12.0432 134.211 11.654C135.379 11.2648 136.579 11.0702 137.811 11.0702C138.914 11.0702 139.844 11.1999 140.6 11.4594C141.357 11.6972 141.984 12.0108 142.482 12.3999C142.979 12.7891 143.357 13.2432 143.617 13.7621C143.898 14.2594 144.092 14.7675 144.2 15.2864C144.33 15.8054 144.406 16.3135 144.427 16.8108C144.449 17.2864 144.46 17.7081 144.46 18.0756V27.027H140.957V24.8864ZM140.73 20.054H139.919C139.379 20.054 138.773 20.0756 138.103 20.1189C137.433 20.1621 136.795 20.2702 136.19 20.4432C135.606 20.5945 135.109 20.8324 134.698 21.1567C134.287 21.4594 134.081 21.8918 134.081 22.454C134.081 22.8216 134.157 23.1351 134.309 23.3945C134.481 23.6324 134.698 23.8378 134.957 24.0108C135.217 24.1837 135.509 24.3135 135.833 24.4C136.157 24.4648 136.482 24.4972 136.806 24.4972C138.146 24.4972 139.13 24.1837 139.757 23.5567C140.406 22.9081 140.73 22.0324 140.73 20.9297V20.054ZM147.383 4.06481H156.334C157.199 4.06481 158.053 4.17292 158.896 4.38914C159.739 4.58373 160.485 4.91887 161.134 5.39454C161.804 5.8486 162.345 6.44319 162.755 7.17833C163.166 7.91346 163.372 8.79995 163.372 9.83779C163.372 11.1351 163.004 12.2054 162.269 13.0486C161.534 13.8918 160.572 14.4972 159.383 14.8648V14.9297C160.096 15.0162 160.755 15.2216 161.361 15.5459C161.988 15.8486 162.518 16.2486 162.95 16.7459C163.383 17.2216 163.718 17.7837 163.955 18.4324C164.215 19.0594 164.345 19.7405 164.345 20.4756C164.345 21.7297 164.096 22.7783 163.599 23.6216C163.101 24.4432 162.442 25.1135 161.62 25.6324C160.82 26.1297 159.891 26.4864 158.831 26.7027C157.793 26.9189 156.734 27.027 155.653 27.027H147.383V4.06481ZM151.469 13.4054H155.199C156.561 13.4054 157.577 13.1459 158.247 12.627C158.939 12.0864 159.285 11.3837 159.285 10.5189C159.285 9.52427 158.928 8.78914 158.215 8.31346C157.523 7.81616 156.399 7.56752 154.842 7.56752H151.469V13.4054ZM151.469 23.5243H155.231C155.75 23.5243 156.301 23.4918 156.885 23.427C157.491 23.3621 158.042 23.2108 158.539 22.9729C159.037 22.7351 159.447 22.4 159.772 21.9675C160.096 21.5135 160.258 20.9081 160.258 20.1513C160.258 18.9405 159.858 18.0972 159.058 17.6216C158.28 17.1459 157.058 16.9081 155.393 16.9081H151.469V23.5243ZM169.548 20.6054C169.678 21.7729 170.132 22.681 170.91 23.3297C171.689 23.9783 172.629 24.3026 173.732 24.3026C174.705 24.3026 175.516 24.1081 176.164 23.7189C176.835 23.3081 177.418 22.7999 177.916 22.1945L180.705 24.3026C179.797 25.427 178.781 26.227 177.656 26.7027C176.532 27.1783 175.353 27.4162 174.121 27.4162C172.953 27.4162 171.851 27.2216 170.813 26.8324C169.775 26.4432 168.878 25.8918 168.121 25.1783C167.364 24.4648 166.759 23.6108 166.305 22.6162C165.872 21.5999 165.656 20.4756 165.656 19.2432C165.656 18.0108 165.872 16.8972 166.305 15.9027C166.759 14.8864 167.364 14.0216 168.121 13.3081C168.878 12.5945 169.775 12.0432 170.813 11.654C171.851 11.2648 172.953 11.0702 174.121 11.0702C175.202 11.0702 176.186 11.2648 177.072 11.654C177.981 12.0216 178.748 12.5621 179.375 13.2756C180.024 13.9891 180.521 14.8756 180.867 15.9351C181.235 16.9729 181.418 18.1729 181.418 19.5351V20.6054H169.548ZM177.526 17.6864C177.505 16.5405 177.148 15.6432 176.456 14.9945C175.764 14.3243 174.802 13.9891 173.57 13.9891C172.402 13.9891 171.472 14.3243 170.781 14.9945C170.11 15.6648 169.699 16.5621 169.548 17.6864H177.526ZM186.55 20.6054C186.679 21.7729 187.134 22.681 187.912 23.3297C188.69 23.9783 189.631 24.3026 190.734 24.3026C191.707 24.3026 192.517 24.1081 193.166 23.7189C193.836 23.3081 194.42 22.7999 194.917 22.1945L197.707 24.3026C196.798 25.427 195.782 26.227 194.658 26.7027C193.534 27.1783 192.355 27.4162 191.123 27.4162C189.955 27.4162 188.852 27.2216 187.815 26.8324C186.777 26.4432 185.879 25.8918 185.123 25.1783C184.366 24.4648 183.761 23.6108 183.307 22.6162C182.874 21.5999 182.658 20.4756 182.658 19.2432C182.658 18.0108 182.874 16.8972 183.307 15.9027C183.761 14.8864 184.366 14.0216 185.123 13.3081C185.879 12.5945 186.777 12.0432 187.815 11.654C188.852 11.2648 189.955 11.0702 191.123 11.0702C192.204 11.0702 193.188 11.2648 194.074 11.654C194.982 12.0216 195.75 12.5621 196.377 13.2756C197.025 13.9891 197.523 14.8756 197.869 15.9351C198.236 16.9729 198.42 18.1729 198.42 19.5351V20.6054H186.55ZM194.528 17.6864C194.507 16.5405 194.15 15.6432 193.458 14.9945C192.766 14.3243 191.804 13.9891 190.571 13.9891C189.404 13.9891 188.474 14.3243 187.782 14.9945C187.112 15.6648 186.701 16.5621 186.55 17.6864H194.528Z" fill="#062A3F"/>
</g>
<defs>
<clipPath id="clip0_20_913">
<rect width="200" height="33.7838" fill="white"/>
</clipPath>
</defs>
</svg>
