<svg width="534" height="938" viewBox="0 0 534 938" fill="none" xmlns="http://www.w3.org/2000/svg">
<path d="M102.486 -23L23.726 22.4775V113.433L102.486 158.91L181.246 113.433V22.4775L102.486 -23Z" fill="url(#paint0_linear_1_982)"/>
<path d="M190.675 132.267L111.914 177.744V268.699L190.675 314.177L269.435 268.699V177.744L190.675 132.267Z" fill="url(#paint1_linear_1_982)"/>
<path d="M278.863 287.533L200.103 333.011V423.966L278.863 469.444L357.623 423.966V333.011L278.863 287.533Z" fill="url(#paint2_linear_1_982)"/>
<path d="M367.051 442.8L288.291 488.278V579.233L367.051 624.71L445.812 579.233V488.278L367.051 442.8Z" fill="url(#paint3_linear_1_982)"/>
<path d="M455.24 598.067L376.48 643.544V734.5L455.24 779.977L534 734.5V643.544L455.24 598.067Z" fill="url(#paint4_linear_1_982)"/>
<path d="M276.107 600.823L197.347 646.301V737.256L276.107 782.733L354.867 737.256V646.301L276.107 600.823Z" fill="url(#paint5_linear_1_982)"/>
<path d="M11.5417 132.267L-67.2184 177.744V268.699L11.5417 314.177L90.3018 268.699V177.744L11.5417 132.267Z" fill="url(#paint6_linear_1_982)"/>
<path d="M99.7302 288.452L20.97 333.93V424.885L99.7302 470.362L178.49 424.885V333.93L99.7302 288.452Z" fill="url(#paint7_linear_1_982)"/>
<path d="M187.919 444.638L109.159 490.115V581.07L187.919 626.548L266.679 581.07V490.115L187.919 444.638Z" fill="url(#paint8_linear_1_982)"/>
<path d="M183.325 756.09L104.565 801.567V892.522L183.325 938L262.086 892.522V801.567L183.325 756.09Z" fill="url(#paint9_linear_1_982)"/>
<path d="M-81.2399 287.533L-160 333.011V423.966L-81.2399 469.444L-2.4798 423.966V333.011L-81.2399 287.533Z" fill="url(#paint10_linear_1_982)"/>
<path d="M6.94855 443.719L-71.8115 489.196V580.152L6.94855 625.629L85.7087 580.152V489.196L6.94855 443.719Z" fill="url(#paint11_linear_1_982)"/>
<path d="M95.137 599.904L16.3769 645.382V736.337L95.137 781.815L173.897 736.337V645.382L95.137 599.904Z" fill="url(#paint12_linear_1_982)"/>
<defs>
<linearGradient id="paint0_linear_1_982" x1="-43.576" y1="-23.0001" x2="534.1" y2="937.94" gradientUnits="userSpaceOnUse">
<stop stop-color="#008947" stop-opacity="0.07"/>
<stop offset="1" stop-color="#19BE6F" stop-opacity="0.01"/>
</linearGradient>
<linearGradient id="paint1_linear_1_982" x1="-43.576" y1="-23.0001" x2="534.1" y2="937.94" gradientUnits="userSpaceOnUse">
<stop stop-color="#008947" stop-opacity="0.07"/>
<stop offset="1" stop-color="#19BE6F" stop-opacity="0.01"/>
</linearGradient>
<linearGradient id="paint2_linear_1_982" x1="-43.576" y1="-23.0001" x2="534.1" y2="937.94" gradientUnits="userSpaceOnUse">
<stop stop-color="#008947" stop-opacity="0.07"/>
<stop offset="1" stop-color="#19BE6F" stop-opacity="0.01"/>
</linearGradient>
<linearGradient id="paint3_linear_1_982" x1="-43.576" y1="-23.0001" x2="534.1" y2="937.94" gradientUnits="userSpaceOnUse">
<stop stop-color="#008947" stop-opacity="0.07"/>
<stop offset="1" stop-color="#19BE6F" stop-opacity="0.01"/>
</linearGradient>
<linearGradient id="paint4_linear_1_982" x1="-43.576" y1="-23.0001" x2="534.1" y2="937.94" gradientUnits="userSpaceOnUse">
<stop stop-color="#008947" stop-opacity="0.07"/>
<stop offset="1" stop-color="#19BE6F" stop-opacity="0.01"/>
</linearGradient>
<linearGradient id="paint5_linear_1_982" x1="-43.576" y1="-23.0001" x2="534.1" y2="937.94" gradientUnits="userSpaceOnUse">
<stop stop-color="#008947" stop-opacity="0.07"/>
<stop offset="1" stop-color="#19BE6F" stop-opacity="0.01"/>
</linearGradient>
<linearGradient id="paint6_linear_1_982" x1="-43.576" y1="-23.0001" x2="534.1" y2="937.94" gradientUnits="userSpaceOnUse">
<stop stop-color="#008947" stop-opacity="0.07"/>
<stop offset="1" stop-color="#19BE6F" stop-opacity="0.01"/>
</linearGradient>
<linearGradient id="paint7_linear_1_982" x1="-43.576" y1="-23.0001" x2="534.1" y2="937.94" gradientUnits="userSpaceOnUse">
<stop stop-color="#008947" stop-opacity="0.07"/>
<stop offset="1" stop-color="#19BE6F" stop-opacity="0.01"/>
</linearGradient>
<linearGradient id="paint8_linear_1_982" x1="-43.576" y1="-23.0001" x2="534.1" y2="937.94" gradientUnits="userSpaceOnUse">
<stop stop-color="#008947" stop-opacity="0.07"/>
<stop offset="1" stop-color="#19BE6F" stop-opacity="0.01"/>
</linearGradient>
<linearGradient id="paint9_linear_1_982" x1="-43.576" y1="-23.0001" x2="534.1" y2="937.94" gradientUnits="userSpaceOnUse">
<stop stop-color="#008947" stop-opacity="0.07"/>
<stop offset="1" stop-color="#19BE6F" stop-opacity="0.01"/>
</linearGradient>
<linearGradient id="paint10_linear_1_982" x1="-43.576" y1="-23.0001" x2="534.1" y2="937.94" gradientUnits="userSpaceOnUse">
<stop stop-color="#008947" stop-opacity="0.07"/>
<stop offset="1" stop-color="#19BE6F" stop-opacity="0.01"/>
</linearGradient>
<linearGradient id="paint11_linear_1_982" x1="-43.576" y1="-23.0001" x2="534.1" y2="937.94" gradientUnits="userSpaceOnUse">
<stop stop-color="#008947" stop-opacity="0.07"/>
<stop offset="1" stop-color="#19BE6F" stop-opacity="0.01"/>
</linearGradient>
<linearGradient id="paint12_linear_1_982" x1="-43.576" y1="-23.0001" x2="534.1" y2="937.94" gradientUnits="userSpaceOnUse">
<stop stop-color="#008947" stop-opacity="0.07"/>
<stop offset="1" stop-color="#19BE6F" stop-opacity="0.01"/>
</linearGradient>
</defs>
</svg>
