<svg width="496" height="749" viewBox="0 0 496 749" fill="none" xmlns="http://www.w3.org/2000/svg">
<path d="M150.291 -21.9575L87.1925 14.4813V87.3589L150.291 123.798L213.39 87.3589V14.4813L150.291 -21.9575Z" fill="url(#paint0_linear_37_83)"/>
<path d="M220.944 102.45L157.845 138.889V211.766L220.944 248.205L284.043 211.766V138.889L220.944 102.45Z" fill="url(#paint1_linear_37_83)"/>
<path d="M291.596 226.857L228.497 263.296V336.173L291.596 372.612L354.695 336.173V263.296L291.596 226.857Z" fill="url(#paint2_linear_37_83)"/>
<path d="M362.249 351.264L299.15 387.703V460.581L362.249 497.02L425.348 460.581V387.703L362.249 351.264Z" fill="url(#paint3_linear_37_83)"/>
<path d="M432.901 475.672L369.802 512.11V584.988L432.901 621.427L496 584.988V512.11L432.901 475.672Z" fill="url(#paint4_linear_37_83)"/>
<path d="M289.388 477.88L226.29 514.319V587.196L289.388 623.635L352.487 587.196V514.319L289.388 477.88Z" fill="url(#paint5_linear_37_83)"/>
<path d="M77.4311 102.45L14.3322 138.889V211.766L77.4311 248.205L140.53 211.766V138.889L77.4311 102.45Z" fill="url(#paint6_linear_37_83)"/>
<path d="M148.084 227.593L84.9846 264.032V336.91L148.084 373.348L211.182 336.91V264.032L148.084 227.593Z" fill="url(#paint7_linear_37_83)"/>
<path d="M218.736 352.737L155.637 389.175V462.053L218.736 498.492L281.835 462.053V389.175L218.736 352.737Z" fill="url(#paint8_linear_37_83)"/>
<path d="M215.056 602.287L151.957 638.726V711.604L215.056 748.042L278.155 711.604V638.726L215.056 602.287Z" fill="url(#paint9_linear_37_83)"/>
<path d="M3.09888 226.857L-60 263.296V336.173L3.09888 372.612L66.1978 336.173V263.296L3.09888 226.857Z" fill="url(#paint10_linear_37_83)"/>
<path d="M73.7513 352L10.6524 388.439V461.317L73.7513 497.756L136.85 461.317V388.439L73.7513 352Z" fill="url(#paint11_linear_37_83)"/>
<path d="M144.404 477.144L81.3048 513.583V586.46L144.404 622.899L207.503 586.46V513.583L144.404 477.144Z" fill="url(#paint12_linear_37_83)"/>
<defs>
<linearGradient id="paint0_linear_37_83" x1="33.2734" y1="-21.9576" x2="496.162" y2="747.945" gradientUnits="userSpaceOnUse">
<stop stop-color="white" stop-opacity="0.05"/>
<stop offset="1" stop-color="white" stop-opacity="0"/>
</linearGradient>
<linearGradient id="paint1_linear_37_83" x1="33.2734" y1="-21.9576" x2="496.162" y2="747.945" gradientUnits="userSpaceOnUse">
<stop stop-color="white" stop-opacity="0.05"/>
<stop offset="1" stop-color="white" stop-opacity="0"/>
</linearGradient>
<linearGradient id="paint2_linear_37_83" x1="33.2734" y1="-21.9576" x2="496.162" y2="747.945" gradientUnits="userSpaceOnUse">
<stop stop-color="white" stop-opacity="0.05"/>
<stop offset="1" stop-color="white" stop-opacity="0"/>
</linearGradient>
<linearGradient id="paint3_linear_37_83" x1="33.2734" y1="-21.9576" x2="496.162" y2="747.945" gradientUnits="userSpaceOnUse">
<stop stop-color="white" stop-opacity="0.05"/>
<stop offset="1" stop-color="white" stop-opacity="0"/>
</linearGradient>
<linearGradient id="paint4_linear_37_83" x1="33.2734" y1="-21.9576" x2="496.162" y2="747.945" gradientUnits="userSpaceOnUse">
<stop stop-color="white" stop-opacity="0.05"/>
<stop offset="1" stop-color="white" stop-opacity="0"/>
</linearGradient>
<linearGradient id="paint5_linear_37_83" x1="33.2734" y1="-21.9576" x2="496.162" y2="747.945" gradientUnits="userSpaceOnUse">
<stop stop-color="white" stop-opacity="0.05"/>
<stop offset="1" stop-color="white" stop-opacity="0"/>
</linearGradient>
<linearGradient id="paint6_linear_37_83" x1="33.2734" y1="-21.9576" x2="496.162" y2="747.945" gradientUnits="userSpaceOnUse">
<stop stop-color="white" stop-opacity="0.05"/>
<stop offset="1" stop-color="white" stop-opacity="0"/>
</linearGradient>
<linearGradient id="paint7_linear_37_83" x1="33.2734" y1="-21.9576" x2="496.162" y2="747.945" gradientUnits="userSpaceOnUse">
<stop stop-color="white" stop-opacity="0.05"/>
<stop offset="1" stop-color="white" stop-opacity="0"/>
</linearGradient>
<linearGradient id="paint8_linear_37_83" x1="33.2734" y1="-21.9576" x2="496.162" y2="747.945" gradientUnits="userSpaceOnUse">
<stop stop-color="white" stop-opacity="0.05"/>
<stop offset="1" stop-color="white" stop-opacity="0"/>
</linearGradient>
<linearGradient id="paint9_linear_37_83" x1="33.2734" y1="-21.9576" x2="496.162" y2="747.945" gradientUnits="userSpaceOnUse">
<stop stop-color="white" stop-opacity="0.05"/>
<stop offset="1" stop-color="white" stop-opacity="0"/>
</linearGradient>
<linearGradient id="paint10_linear_37_83" x1="33.2734" y1="-21.9576" x2="496.162" y2="747.945" gradientUnits="userSpaceOnUse">
<stop stop-color="white" stop-opacity="0.05"/>
<stop offset="1" stop-color="white" stop-opacity="0"/>
</linearGradient>
<linearGradient id="paint11_linear_37_83" x1="33.2734" y1="-21.9576" x2="496.162" y2="747.945" gradientUnits="userSpaceOnUse">
<stop stop-color="white" stop-opacity="0.05"/>
<stop offset="1" stop-color="white" stop-opacity="0"/>
</linearGradient>
<linearGradient id="paint12_linear_37_83" x1="33.2734" y1="-21.9576" x2="496.162" y2="747.945" gradientUnits="userSpaceOnUse">
<stop stop-color="white" stop-opacity="0.05"/>
<stop offset="1" stop-color="white" stop-opacity="0"/>
</linearGradient>
</defs>
</svg>
